<svg width="3176" height="1838" xmlns="http://www.w3.org/2000/svg" xmlns:xlink="http://www.w3.org/1999/xlink" overflow="hidden"><defs><clipPath id="clip0"><rect x="2016" y="366" width="3176" height="1838"/></clipPath><clipPath id="clip1"><rect x="2021" y="371" width="3167" height="1829"/></clipPath><clipPath id="clip2"><rect x="2021" y="371" width="3167" height="1829"/></clipPath><clipPath id="clip3"><rect x="2021" y="371" width="3167" height="1829"/></clipPath><clipPath id="clip4"><rect x="2021" y="371" width="3167" height="1829"/></clipPath><clipPath id="clip5"><rect x="2232" y="421" width="2561" height="1579"/></clipPath><clipPath id="clip6"><rect x="2232" y="421" width="2561" height="1579"/></clipPath><clipPath id="clip7"><rect x="2232" y="421" width="2561" height="1579"/></clipPath><clipPath id="clip8"><rect x="2232" y="421" width="2561" height="1579"/></clipPath><clipPath id="clip9"><rect x="2232" y="421" width="2561" height="1579"/></clipPath><clipPath id="clip10"><rect x="2232" y="421" width="2561" height="1579"/></clipPath><clipPath id="clip11"><rect x="2232" y="421" width="2561" height="1579"/></clipPath><clipPath id="clip12"><rect x="2232" y="421" width="2561" height="1579"/></clipPath><clipPath id="clip13"><rect x="2232" y="421" width="2561" height="1579"/></clipPath><clipPath id="clip14"><rect x="2232" y="421" width="2561" height="1579"/></clipPath><clipPath id="clip15"><rect x="2232" y="421" width="2561" height="1579"/></clipPath><clipPath id="clip16"><rect x="2232" y="421" width="2561" height="1579"/></clipPath><clipPath id="clip17"><rect x="2232" y="421" width="2561" height="1579"/></clipPath><clipPath id="clip18"><rect x="2232" y="421" width="2561" height="1579"/></clipPath><clipPath id="clip19"><rect x="2232" y="421" width="2561" height="1579"/></clipPath><clipPath id="clip20"><rect x="2232" y="421" width="2561" height="1579"/></clipPath><clipPath id="clip21"><rect x="2232" y="421" width="2561" height="1579"/></clipPath><clipPath id="clip22"><rect x="2232" y="421" width="2561" height="1579"/></clipPath><clipPath id="clip23"><rect x="2232" y="421" width="2561" height="1579"/></clipPath><clipPath id="clip24"><rect x="2232" y="421" width="2561" height="1579"/></clipPath><clipPath id="clip25"><rect x="2232" y="421" width="2561" height="1579"/></clipPath><clipPath id="clip26"><rect x="2232" y="421" width="2561" height="1579"/></clipPath><clipPath id="clip27"><rect x="2232" y="421" width="2561" height="1579"/></clipPath><clipPath id="clip28"><rect x="2232" y="421" width="2561" height="1579"/></clipPath><clipPath id="clip29"><rect x="2232" y="421" width="2561" height="1579"/></clipPath><clipPath id="clip30"><rect x="2232" y="421" width="2561" height="1579"/></clipPath><clipPath id="clip31"><rect x="2232" y="421" width="2561" height="1579"/></clipPath><clipPath id="clip32"><rect x="2232" y="421" width="2561" height="1579"/></clipPath><clipPath id="clip33"><rect x="2232" y="421" width="2561" height="1579"/></clipPath><clipPath id="clip34"><rect x="2232" y="421" width="2561" height="1579"/></clipPath><clipPath id="clip35"><rect x="2232" y="421" width="2561" height="1579"/></clipPath><clipPath id="clip36"><rect x="2232" y="421" width="2561" height="1579"/></clipPath><clipPath id="clip37"><rect x="2232" y="421" width="2561" height="1579"/></clipPath><clipPath id="clip38"><rect x="2232" y="421" width="2561" height="1579"/></clipPath><clipPath id="clip39"><rect x="2232" y="421" width="2561" height="1579"/></clipPath><clipPath id="clip40"><rect x="2232" y="421" width="2561" height="1579"/></clipPath><clipPath id="clip41"><rect x="2232" y="421" width="2561" height="1579"/></clipPath><clipPath id="clip42"><rect x="2232" y="421" width="2561" height="1579"/></clipPath><clipPath id="clip43"><rect x="2232" y="421" width="2561" height="1579"/></clipPath><clipPath id="clip44"><rect x="2232" y="421" width="2561" height="1579"/></clipPath><clipPath id="clip45"><rect x="2232" y="421" width="2561" height="1579"/></clipPath><clipPath id="clip46"><rect x="2232" y="421" width="2561" height="1579"/></clipPath><clipPath id="clip47"><rect x="2232" y="421" width="2561" height="1579"/></clipPath><clipPath id="clip48"><rect x="2232" y="421" width="2561" height="1579"/></clipPath><clipPath id="clip49"><rect x="2232" y="421" width="2561" height="1579"/></clipPath><clipPath id="clip50"><rect x="2232" y="421" width="2561" height="1579"/></clipPath><clipPath id="clip51"><rect x="2232" y="421" width="2561" height="1579"/></clipPath><clipPath id="clip52"><rect x="2232" y="421" width="2561" height="1579"/></clipPath><clipPath id="clip53"><rect x="2232" y="421" width="2561" height="1579"/></clipPath><clipPath id="clip54"><rect x="2232" y="421" width="2561" height="1579"/></clipPath><clipPath id="clip55"><rect x="2232" y="421" width="2561" height="1579"/></clipPath><clipPath id="clip56"><rect x="2232" y="421" width="2561" height="1579"/></clipPath><clipPath id="clip57"><rect x="2232" y="421" width="2561" height="1579"/></clipPath><clipPath id="clip58"><rect x="2232" y="421" width="2561" height="1579"/></clipPath><clipPath id="clip59"><rect x="2232" y="421" width="2561" height="1579"/></clipPath><clipPath id="clip60"><rect x="2232" y="421" width="2561" height="1579"/></clipPath><clipPath id="clip61"><rect x="2232" y="421" width="2561" height="1579"/></clipPath><clipPath id="clip62"><rect x="2232" y="421" width="2561" height="1579"/></clipPath><clipPath id="clip63"><rect x="2232" y="421" width="2561" height="1579"/></clipPath><clipPath id="clip64"><rect x="2232" y="421" width="2561" height="1579"/></clipPath><clipPath id="clip65"><rect x="2232" y="421" width="2561" height="1579"/></clipPath><clipPath id="clip66"><rect x="2232" y="421" width="2561" height="1579"/></clipPath><clipPath id="clip67"><rect x="2232" y="421" width="2561" height="1579"/></clipPath><clipPath id="clip68"><rect x="2232" y="421" width="2561" height="1579"/></clipPath><clipPath id="clip69"><rect x="2232" y="421" width="2561" height="1579"/></clipPath><clipPath id="clip70"><rect x="2232" y="421" width="2561" height="1579"/></clipPath><clipPath id="clip71"><rect x="2232" y="421" width="2561" height="1579"/></clipPath><clipPath id="clip72"><rect x="2232" y="421" width="2561" height="1579"/></clipPath><clipPath id="clip73"><rect x="2232" y="421" width="2561" height="1579"/></clipPath><clipPath id="clip74"><rect x="2232" y="421" width="2561" height="1579"/></clipPath><clipPath id="clip75"><rect x="2232" y="421" width="2561" height="1579"/></clipPath><clipPath id="clip76"><rect x="2232" y="421" width="2561" height="1579"/></clipPath><clipPath id="clip77"><rect x="2232" y="421" width="2561" height="1579"/></clipPath><clipPath id="clip78"><rect x="2232" y="421" width="2561" height="1579"/></clipPath><clipPath id="clip79"><rect x="2232" y="421" width="2561" height="1579"/></clipPath><clipPath id="clip80"><rect x="2232" y="421" width="2561" height="1579"/></clipPath><clipPath id="clip81"><rect x="2232" y="421" width="2561" height="1579"/></clipPath><clipPath id="clip82"><rect x="2232" y="421" width="2561" height="1579"/></clipPath><clipPath id="clip83"><rect x="2232" y="421" width="2561" height="1579"/></clipPath><clipPath id="clip84"><rect x="2232" y="421" width="2561" height="1579"/></clipPath><clipPath id="clip85"><rect x="2232" y="421" width="2561" height="1579"/></clipPath><clipPath id="clip86"><rect x="2232" y="421" width="2561" height="1579"/></clipPath><clipPath id="clip87"><rect x="2232" y="421" width="2561" height="1579"/></clipPath><clipPath id="clip88"><rect x="2232" y="421" width="2561" height="1579"/></clipPath><clipPath id="clip89"><rect x="2232" y="421" width="2561" height="1579"/></clipPath><clipPath id="clip90"><rect x="2232" y="421" width="2561" height="1579"/></clipPath><clipPath id="clip91"><rect x="2232" y="421" width="2561" height="1579"/></clipPath><clipPath id="clip92"><rect x="2232" y="421" width="2561" height="1579"/></clipPath><clipPath id="clip93"><rect x="2232" y="421" width="2561" height="1579"/></clipPath><clipPath id="clip94"><rect x="2232" y="421" width="2561" height="1579"/></clipPath><clipPath id="clip95"><rect x="2232" y="421" width="2561" height="1579"/></clipPath><clipPath id="clip96"><rect x="2232" y="421" width="2561" height="1579"/></clipPath><clipPath id="clip97"><rect x="2232" y="421" width="2561" height="1579"/></clipPath><clipPath id="clip98"><rect x="2232" y="421" width="2561" height="1579"/></clipPath><clipPath id="clip99"><rect x="2232" y="421" width="2561" height="1579"/></clipPath><clipPath id="clip100"><rect x="2021" y="371" width="3167" height="1829"/></clipPath><clipPath id="clip101"><rect x="2021" y="371" width="3167" height="1829"/></clipPath><clipPath id="clip102"><rect x="2021" y="371" width="3167" height="1829"/></clipPath><clipPath id="clip103"><rect x="2021" y="371" width="3167" height="1829"/></clipPath><clipPath id="clip104"><rect x="2021" y="371" width="3167" height="1829"/></clipPath><clipPath id="clip105"><rect x="2021" y="371" width="3167" height="1829"/></clipPath><clipPath id="clip106"><rect x="2021" y="371" width="3167" height="1829"/></clipPath><clipPath id="clip107"><rect x="2021" y="371" width="3167" height="1829"/></clipPath><clipPath id="clip108"><rect x="2021" y="371" width="3167" height="1829"/></clipPath><clipPath id="clip109"><rect x="2021" y="371" width="3167" height="1829"/></clipPath><clipPath id="clip110"><rect x="2021" y="371" width="3167" height="1829"/></clipPath><clipPath id="clip111"><rect x="2021" y="371" width="3167" height="1829"/></clipPath><clipPath id="clip112"><rect x="2021" y="371" width="3167" height="1829"/></clipPath><clipPath id="clip113"><rect x="2021" y="371" width="3167" height="1829"/></clipPath><clipPath id="clip114"><rect x="2021" y="371" width="3167" height="1829"/></clipPath><clipPath id="clip115"><rect x="2021" y="371" width="3167" height="1829"/></clipPath><clipPath id="clip116"><rect x="2021" y="371" width="3167" height="1829"/></clipPath><clipPath id="clip117"><rect x="2021" y="371" width="3167" height="1829"/></clipPath><clipPath id="clip118"><rect x="2021" y="371" width="3167" height="1829"/></clipPath><clipPath id="clip119"><rect x="2021" y="371" width="3167" height="1829"/></clipPath><clipPath id="clip120"><rect x="2021" y="371" width="3167" height="1829"/></clipPath><clipPath id="clip121"><rect x="2021" y="371" width="3167" height="1829"/></clipPath><clipPath id="clip122"><rect x="2021" y="371" width="3167" height="1829"/></clipPath><clipPath id="clip123"><rect x="2021" y="371" width="3167" height="1829"/></clipPath><clipPath id="clip124"><rect x="2021" y="371" width="3167" height="1829"/></clipPath><clipPath id="clip125"><rect x="2021" y="371" width="3167" height="1829"/></clipPath><clipPath id="clip126"><rect x="2021" y="371" width="3167" height="1829"/></clipPath><clipPath id="clip127"><rect x="2021" y="371" width="3167" height="1829"/></clipPath><clipPath id="clip128"><rect x="2021" y="371" width="3167" height="1829"/></clipPath><clipPath id="clip129"><rect x="2021" y="371" width="3167" height="1829"/></clipPath><clipPath id="clip130"><rect x="2021" y="371" width="3167" height="1829"/></clipPath></defs><g clip-path="url(#clip0)" transform="translate(-2016 -366)"><rect x="2021" y="371" width="3167" height="1829" fill="#FFFFFF" fill-opacity="1"/><g clip-path="url(#clip1)"><path d="M2232.5 1839.56 4790.5 1839.56M2232.5 1681.56 4790.5 1681.56M2232.5 1524.55 4790.5 1524.55M2232.5 1366.55 4790.5 1366.55M2232.5 1209.54 4790.5 1209.54M2232.5 1051.53 4790.5 1051.53M2232.5 894.53 4790.5 894.53M2232.5 736.524 4790.5 736.524M2232.5 579.519 4790.5 579.519M2232.5 421.5 4790.5 421.5" stroke="#D9D9D9" stroke-width="3.4375" stroke-linecap="butt" stroke-linejoin="round" stroke-miterlimit="10" stroke-opacity="1" fill="none" fill-rule="nonzero"/></g><g clip-path="url(#clip2)"><path d="M2597.59 421.5 2597.59 1996.5M2962.6 421.5 2962.6 1996.5M3328.61 421.5 3328.61 1996.5M3693.62 421.5 3693.62 1996.5M4059.63 421.5 4059.63 1996.5M4424.65 421.5 4424.65 1996.5M4790.5 421.5 4790.5 1996.5" stroke="#D9D9D9" stroke-width="3.4375" stroke-linecap="butt" stroke-linejoin="round" stroke-miterlimit="10" stroke-opacity="1" fill="none" fill-rule="nonzero"/></g><g clip-path="url(#clip3)"><path d="M0 0 0.000360892 1575" stroke="#BFBFBF" stroke-width="3.4375" stroke-linecap="butt" stroke-linejoin="round" stroke-miterlimit="10" stroke-opacity="1" fill="none" fill-rule="evenodd" transform="matrix(1 0 0 -1 2232.5 1996.5)"/></g><g clip-path="url(#clip4)"><path d="M2232.5 1996.5 4790.5 1996.5" stroke="#BFBFBF" stroke-width="3.4375" stroke-linecap="butt" stroke-linejoin="round" stroke-miterlimit="10" stroke-opacity="1" fill="none" fill-rule="evenodd"/></g><g clip-path="url(#clip5)"><path d="M2706 1178C2706 1143.76 2733.98 1116 2768.5 1116 2803.02 1116 2831 1143.76 2831 1178 2831 1212.24 2803.02 1240 2768.5 1240 2733.98 1240 2706 1212.24 2706 1178Z" fill="#1CADE4" fill-rule="evenodd" fill-opacity="1"/></g><g clip-path="url(#clip6)"><path d="M3006 1320C3006 1303.43 3019.43 1290 3036 1290 3052.57 1290 3066 1303.43 3066 1320 3066 1336.57 3052.57 1350 3036 1350 3019.43 1350 3006 1336.57 3006 1320Z" fill="#1CADE4" fill-rule="evenodd" fill-opacity="1"/></g><g clip-path="url(#clip7)"><path d="M3622 1461.5C3622 1442.45 3637.45 1427 3656.5 1427 3675.55 1427 3691 1442.45 3691 1461.5 3691 1480.55 3675.55 1496 3656.5 1496 3637.45 1496 3622 1480.55 3622 1461.5Z" fill="#2683C6" fill-rule="evenodd" fill-opacity="1"/></g><g clip-path="url(#clip8)"><path d="M4270 1524.5C4270 1503.24 4287.46 1486 4309 1486 4330.54 1486 4348 1503.24 4348 1524.5 4348 1545.76 4330.54 1563 4309 1563 4287.46 1563 4270 1545.76 4270 1524.5Z" fill="#2683C6" fill-rule="evenodd" fill-opacity="1"/></g><g clip-path="url(#clip9)"><path d="M2997 1335C2997 1318.43 3010.43 1305 3027 1305 3043.57 1305 3057 1318.43 3057 1335 3057 1351.57 3043.57 1365 3027 1365 3010.43 1365 2997 1351.57 2997 1335Z" fill="#2683C6" fill-rule="evenodd" fill-opacity="1"/></g><g clip-path="url(#clip10)"><path d="M4469 1682C4469 1659.91 4486.91 1642 4509 1642 4531.09 1642 4549 1659.91 4549 1682 4549 1704.09 4531.09 1722 4509 1722 4486.91 1722 4469 1704.09 4469 1682Z" fill="#2683C6" fill-rule="evenodd" fill-opacity="1"/></g><g clip-path="url(#clip11)"><path d="M2605 1209.5C2605 1194.86 2616.86 1183 2631.5 1183 2646.14 1183 2658 1194.86 2658 1209.5 2658 1224.14 2646.14 1236 2631.5 1236 2616.86 1236 2605 1224.14 2605 1209.5Z" fill="#2683C6" fill-rule="evenodd" fill-opacity="1"/></g><g clip-path="url(#clip12)"><path d="M3515 1398.5C3515 1380 3530.22 1365 3549 1365 3567.78 1365 3583 1380 3583 1398.5 3583 1417 3567.78 1432 3549 1432 3530.22 1432 3515 1417 3515 1398.5Z" fill="#2683C6" fill-rule="evenodd" fill-opacity="1"/></g><g clip-path="url(#clip13)"><path d="M4134 1556C4134 1535.01 4151.01 1518 4172 1518 4192.99 1518 4210 1535.01 4210 1556 4210 1576.99 4192.99 1594 4172 1594 4151.01 1594 4134 1576.99 4134 1556Z" fill="#2683C6" fill-rule="evenodd" fill-opacity="1"/></g><g clip-path="url(#clip14)"><path d="M4564 1587.5C4564 1565.13 4582.13 1547 4604.5 1547 4626.87 1547 4645 1565.13 4645 1587.5 4645 1609.87 4626.87 1628 4604.5 1628 4582.13 1628 4564 1609.87 4564 1587.5Z" fill="#2683C6" fill-rule="evenodd" fill-opacity="1"/></g><g clip-path="url(#clip15)"><path d="M3397 1430C3397 1411.77 3411.77 1397 3430 1397 3448.23 1397 3463 1411.77 3463 1430 3463 1448.23 3448.23 1463 3430 1463 3411.77 1463 3397 1448.23 3397 1430Z" fill="#2683C6" fill-rule="evenodd" fill-opacity="1"/></g><g clip-path="url(#clip16)"><path d="M2735 1335.5C2735 1320.31 2747.54 1308 2763 1308 2778.46 1308 2791 1320.31 2791 1335.5 2791 1350.69 2778.46 1363 2763 1363 2747.54 1363 2735 1350.69 2735 1335.5Z" fill="#2683C6" fill-rule="evenodd" fill-opacity="1"/></g><g clip-path="url(#clip17)"><path d="M4116 1556C4116 1535.01 4133.01 1518 4154 1518 4174.99 1518 4192 1535.01 4192 1556 4192 1576.99 4174.99 1594 4154 1594 4133.01 1594 4116 1576.99 4116 1556Z" fill="#2683C6" fill-rule="evenodd" fill-opacity="1"/></g><g clip-path="url(#clip18)"><path d="M4236 1587.5C4236 1566.24 4253.24 1549 4274.5 1549 4295.76 1549 4313 1566.24 4313 1587.5 4313 1608.76 4295.76 1626 4274.5 1626 4253.24 1626 4236 1608.76 4236 1587.5Z" fill="#2683C6" fill-rule="evenodd" fill-opacity="1"/></g><g clip-path="url(#clip19)"><path d="M2858 1304C2858 1287.98 2870.76 1275 2886.5 1275 2902.24 1275 2915 1287.98 2915 1304 2915 1320.02 2902.24 1333 2886.5 1333 2870.76 1333 2858 1320.02 2858 1304Z" fill="#2683C6" fill-rule="evenodd" fill-opacity="1"/></g><g clip-path="url(#clip20)"><path d="M4053 1555.5C4053 1534.79 4069.79 1518 4090.5 1518 4111.21 1518 4128 1534.79 4128 1555.5 4128 1576.21 4111.21 1593 4090.5 1593 4069.79 1593 4053 1576.21 4053 1555.5Z" fill="#2683C6" fill-rule="evenodd" fill-opacity="1"/></g><g clip-path="url(#clip21)"><path d="M4286 1587.5C4286 1566.24 4303.46 1549 4325 1549 4346.54 1549 4364 1566.24 4364 1587.5 4364 1608.76 4346.54 1626 4325 1626 4303.46 1626 4286 1608.76 4286 1587.5Z" fill="#2683C6" fill-rule="evenodd" fill-opacity="1"/></g><g clip-path="url(#clip22)"><path d="M3312 1430C3312 1412.33 3326.33 1398 3344 1398 3361.67 1398 3376 1412.33 3376 1430 3376 1447.67 3361.67 1462 3344 1462 3326.33 1462 3312 1447.67 3312 1430Z" fill="#2683C6" fill-rule="evenodd" fill-opacity="1"/></g><g clip-path="url(#clip23)"><path d="M4681 1619C4681 1596.36 4699.36 1578 4722 1578 4744.64 1578 4763 1596.36 4763 1619 4763 1641.64 4744.64 1660 4722 1660 4699.36 1660 4681 1641.64 4681 1619Z" fill="#2683C6" fill-rule="evenodd" fill-opacity="1"/></g><g clip-path="url(#clip24)"><path d="M2796 1398.5C2796 1382.76 2808.54 1370 2824 1370 2839.46 1370 2852 1382.76 2852 1398.5 2852 1414.24 2839.46 1427 2824 1427 2808.54 1427 2796 1414.24 2796 1398.5Z" fill="#2683C6" fill-rule="evenodd" fill-opacity="1"/></g><g clip-path="url(#clip25)"><path d="M3206 1335.5C3206 1318.1 3220.1 1304 3237.5 1304 3254.9 1304 3269 1318.1 3269 1335.5 3269 1352.9 3254.9 1367 3237.5 1367 3220.1 1367 3206 1352.9 3206 1335.5Z" fill="#2683C6" fill-rule="evenodd" fill-opacity="1"/></g><g clip-path="url(#clip26)"><path d="M2898 1178C2898 1161.98 2910.98 1149 2927 1149 2943.02 1149 2956 1161.98 2956 1178 2956 1194.02 2943.02 1207 2927 1207 2910.98 1207 2898 1194.02 2898 1178Z" fill="#2683C6" fill-rule="evenodd" fill-opacity="1"/></g><g clip-path="url(#clip27)"><path d="M4125 1493C4125 1472.01 4141.79 1455 4162.5 1455 4183.21 1455 4200 1472.01 4200 1493 4200 1513.99 4183.21 1531 4162.5 1531 4141.79 1531 4125 1513.99 4125 1493Z" fill="#2683C6" fill-rule="evenodd" fill-opacity="1"/></g><g clip-path="url(#clip28)"><path d="M4486 1556C4486 1533.91 4503.91 1516 4526 1516 4548.09 1516 4566 1533.91 4566 1556 4566 1578.09 4548.09 1596 4526 1596 4503.91 1596 4486 1578.09 4486 1556Z" fill="#2683C6" fill-rule="evenodd" fill-opacity="1"/></g><g clip-path="url(#clip29)"><path d="M3411 1524C3411 1505.77 3425.77 1491 3444 1491 3462.23 1491 3477 1505.77 3477 1524 3477 1542.23 3462.23 1557 3444 1557 3425.77 1557 3411 1542.23 3411 1524Z" fill="#2683C6" fill-rule="evenodd" fill-opacity="1"/></g><g clip-path="url(#clip30)"><path d="M4500 1556C4500 1533.91 4517.91 1516 4540 1516 4562.09 1516 4580 1533.91 4580 1556 4580 1578.09 4562.09 1596 4540 1596 4517.91 1596 4500 1578.09 4500 1556Z" fill="#2683C6" fill-rule="evenodd" fill-opacity="1"/></g><g clip-path="url(#clip31)"><path d="M3419 1587.5C3419 1569 3433.77 1554 3452 1554 3470.23 1554 3485 1569 3485 1587.5 3485 1606 3470.23 1621 3452 1621 3433.77 1621 3419 1606 3419 1587.5Z" fill="#2683C6" fill-rule="evenodd" fill-opacity="1"/></g><g clip-path="url(#clip32)"><path d="M3034 1272.5C3034 1255.66 3047.66 1242 3064.5 1242 3081.34 1242 3095 1255.66 3095 1272.5 3095 1289.34 3081.34 1303 3064.5 1303 3047.66 1303 3034 1289.34 3034 1272.5Z" fill="#2683C6" fill-rule="evenodd" fill-opacity="1"/></g><g clip-path="url(#clip33)"><path d="M3285 1430C3285 1412.33 3299.33 1398 3317 1398 3334.67 1398 3349 1412.33 3349 1430 3349 1447.67 3334.67 1462 3317 1462 3299.33 1462 3285 1447.67 3285 1430Z" fill="#2683C6" fill-rule="evenodd" fill-opacity="1"/></g><g clip-path="url(#clip34)"><path d="M4178 1540C4178 1519.01 4195.24 1502 4216.5 1502 4237.76 1502 4255 1519.01 4255 1540 4255 1560.99 4237.76 1578 4216.5 1578 4195.24 1578 4178 1560.99 4178 1540Z" fill="#2683C6" fill-rule="evenodd" fill-opacity="1"/></g><g clip-path="url(#clip35)"><path d="M3305 1241C3305 1223.33 3319.55 1209 3337.5 1209 3355.45 1209 3370 1223.33 3370 1241 3370 1258.67 3355.45 1273 3337.5 1273 3319.55 1273 3305 1258.67 3305 1241Z" fill="#2683C6" fill-rule="evenodd" fill-opacity="1"/></g><g clip-path="url(#clip36)"><path d="M3713 1430C3713 1410.67 3728.67 1395 3748 1395 3767.33 1395 3783 1410.67 3783 1430 3783 1449.33 3767.33 1465 3748 1465 3728.67 1465 3713 1449.33 3713 1430Z" fill="#2683C6" fill-rule="evenodd" fill-opacity="1"/></g><g clip-path="url(#clip37)"><path d="M2981 1162C2981 1145.43 2994.21 1132 3010.5 1132 3026.79 1132 3040 1145.43 3040 1162 3040 1178.57 3026.79 1192 3010.5 1192 2994.21 1192 2981 1178.57 2981 1162Z" fill="#2683C6" fill-rule="evenodd" fill-opacity="1"/></g><g clip-path="url(#clip38)"><path d="M3928 1587.5C3928 1567.34 3944.34 1551 3964.5 1551 3984.66 1551 4001 1567.34 4001 1587.5 4001 1607.66 3984.66 1624 3964.5 1624 3944.34 1624 3928 1607.66 3928 1587.5Z" fill="#2683C6" fill-rule="evenodd" fill-opacity="1"/></g><g clip-path="url(#clip39)"><path d="M3677 1414C3677 1394.67 3692.67 1379 3712 1379 3731.33 1379 3747 1394.67 3747 1414 3747 1433.33 3731.33 1449 3712 1449 3692.67 1449 3677 1433.33 3677 1414Z" fill="#2683C6" fill-rule="evenodd" fill-opacity="1"/></g><g clip-path="url(#clip40)"><path d="M4266 1493C4266 1471.46 4283.24 1454 4304.5 1454 4325.76 1454 4343 1471.46 4343 1493 4343 1514.54 4325.76 1532 4304.5 1532 4283.24 1532 4266 1514.54 4266 1493Z" fill="#2683C6" fill-rule="evenodd" fill-opacity="1"/></g><g clip-path="url(#clip41)"><path d="M3119 1193.5C3119 1176.66 3132.66 1163 3149.5 1163 3166.34 1163 3180 1176.66 3180 1193.5 3180 1210.34 3166.34 1224 3149.5 1224 3132.66 1224 3119 1210.34 3119 1193.5Z" fill="#2683C6" fill-rule="evenodd" fill-opacity="1"/></g><g clip-path="url(#clip42)"><path d="M2426 860C2426 846.193 2437.19 835 2451 835 2464.81 835 2476 846.193 2476 860 2476 873.807 2464.81 885 2451 885 2437.19 885 2426 873.807 2426 860Z" fill="#2683C6" fill-rule="evenodd" fill-opacity="1"/></g><g clip-path="url(#clip43)"><path d="M3271 1360.5C3271 1342.55 3285.33 1328 3303 1328 3320.67 1328 3335 1342.55 3335 1360.5 3335 1378.45 3320.67 1393 3303 1393 3285.33 1393 3271 1378.45 3271 1360.5Z" fill="#2683C6" fill-rule="evenodd" fill-opacity="1"/></g><g clip-path="url(#clip44)"><path d="M3093 1206C3093 1188.88 3106.88 1175 3124 1175 3141.12 1175 3155 1188.88 3155 1206 3155 1223.12 3141.12 1237 3124 1237 3106.88 1237 3093 1223.12 3093 1206Z" fill="#2683C6" fill-rule="evenodd" fill-opacity="1"/></g><g clip-path="url(#clip45)"><path d="M3445 1426.5C3445 1408 3460 1393 3478.5 1393 3497 1393 3512 1408 3512 1426.5 3512 1445 3497 1460 3478.5 1460 3460 1460 3445 1445 3445 1426.5Z" fill="#2683C6" fill-rule="evenodd" fill-opacity="1"/></g><g clip-path="url(#clip46)"><path d="M3217 1294.5C3217 1277.1 3231.1 1263 3248.5 1263 3265.9 1263 3280 1277.1 3280 1294.5 3280 1311.9 3265.9 1326 3248.5 1326 3231.1 1326 3217 1311.9 3217 1294.5Z" fill="#2683C6" fill-rule="evenodd" fill-opacity="1"/></g><g clip-path="url(#clip47)"><path d="M3823 1442.5C3823 1422.89 3838.89 1407 3858.5 1407 3878.11 1407 3894 1422.89 3894 1442.5 3894 1462.11 3878.11 1478 3858.5 1478 3838.89 1478 3823 1462.11 3823 1442.5Z" fill="#2683C6" fill-rule="evenodd" fill-opacity="1"/></g><g clip-path="url(#clip48)"><path d="M4062 1508.5C4062 1487.79 4078.57 1471 4099 1471 4119.43 1471 4136 1487.79 4136 1508.5 4136 1529.21 4119.43 1546 4099 1546 4078.57 1546 4062 1529.21 4062 1508.5Z" fill="#2683C6" fill-rule="evenodd" fill-opacity="1"/></g><g clip-path="url(#clip49)"><path d="M3202 1165.5C3202 1148.1 3216.1 1134 3233.5 1134 3250.9 1134 3265 1148.1 3265 1165.5 3265 1182.9 3250.9 1197 3233.5 1197 3216.1 1197 3202 1182.9 3202 1165.5Z" fill="#2683C6" fill-rule="evenodd" fill-opacity="1"/></g><g clip-path="url(#clip50)"><path d="M3227 1253.5C3227 1236.1 3241.33 1222 3259 1222 3276.67 1222 3291 1236.1 3291 1253.5 3291 1270.9 3276.67 1285 3259 1285 3241.33 1285 3227 1270.9 3227 1253.5Z" fill="#2683C6" fill-rule="evenodd" fill-opacity="1"/></g><g clip-path="url(#clip51)"><path d="M2604 913.5C2604 898.864 2615.86 887 2630.5 887 2645.14 887 2657 898.864 2657 913.5 2657 928.136 2645.14 940 2630.5 940 2615.86 940 2604 928.136 2604 913.5Z" fill="#2683C6" fill-rule="evenodd" fill-opacity="1"/></g><g clip-path="url(#clip52)"><path d="M2847 1055C2847 1038.98 2859.76 1026 2875.5 1026 2891.24 1026 2904 1038.98 2904 1055 2904 1071.02 2891.24 1084 2875.5 1084 2859.76 1084 2847 1071.02 2847 1055Z" fill="#2683C6" fill-rule="evenodd" fill-opacity="1"/></g><g clip-path="url(#clip53)"><path d="M3340 1360.5C3340 1342.55 3354.55 1328 3372.5 1328 3390.45 1328 3405 1342.55 3405 1360.5 3405 1378.45 3390.45 1393 3372.5 1393 3354.55 1393 3340 1378.45 3340 1360.5Z" fill="#2683C6" fill-rule="evenodd" fill-opacity="1"/></g><g clip-path="url(#clip54)"><path d="M3198 1240.5C3198 1223.1 3212.1 1209 3229.5 1209 3246.9 1209 3261 1223.1 3261 1240.5 3261 1257.9 3246.9 1272 3229.5 1272 3212.1 1272 3198 1257.9 3198 1240.5Z" fill="#2683C6" fill-rule="evenodd" fill-opacity="1"/></g><g clip-path="url(#clip55)"><path d="M3177 1303.5C3177 1286.1 3190.88 1272 3208 1272 3225.12 1272 3239 1286.1 3239 1303.5 3239 1320.9 3225.12 1335 3208 1335 3190.88 1335 3177 1320.9 3177 1303.5Z" fill="#2683C6" fill-rule="evenodd" fill-opacity="1"/></g><g clip-path="url(#clip56)"><path d="M3144 1146C3144 1128.88 3157.88 1115 3175 1115 3192.12 1115 3206 1128.88 3206 1146 3206 1163.12 3192.12 1177 3175 1177 3157.88 1177 3144 1163.12 3144 1146Z" fill="#2683C6" fill-rule="evenodd" fill-opacity="1"/></g><g clip-path="url(#clip57)"><path d="M3024 1115C3024 1098.43 3037.66 1085 3054.5 1085 3071.34 1085 3085 1098.43 3085 1115 3085 1131.57 3071.34 1145 3054.5 1145 3037.66 1145 3024 1131.57 3024 1115Z" fill="#2683C6" fill-rule="evenodd" fill-opacity="1"/></g><g clip-path="url(#clip58)"><path d="M2926 1240.5C2926 1224.21 2938.98 1211 2955 1211 2971.02 1211 2984 1224.21 2984 1240.5 2984 1256.79 2971.02 1270 2955 1270 2938.98 1270 2926 1256.79 2926 1240.5Z" fill="#27CED7" fill-rule="evenodd" fill-opacity="1"/></g><g clip-path="url(#clip59)"><path d="M2423 957C2423 943.193 2434.19 932 2448 932 2461.81 932 2473 943.193 2473 957 2473 970.807 2461.81 982 2448 982 2434.19 982 2423 970.807 2423 957Z" fill="#27CED7" fill-rule="evenodd" fill-opacity="1"/></g><g clip-path="url(#clip60)"><path d="M2423 957C2423 943.193 2434.19 932 2448 932 2461.81 932 2473 943.193 2473 957 2473 970.807 2461.81 982 2448 982 2434.19 982 2423 970.807 2423 957Z" fill="#27CED7" fill-rule="evenodd" fill-opacity="1"/></g><g clip-path="url(#clip61)"><path d="M2604 1004.5C2604 989.864 2615.86 978 2630.5 978 2645.14 978 2657 989.864 2657 1004.5 2657 1019.14 2645.14 1031 2630.5 1031 2615.86 1031 2604 1019.14 2604 1004.5Z" fill="#27CED7" fill-rule="evenodd" fill-opacity="1"/></g><g clip-path="url(#clip62)"><path d="M2426 860C2426 846.193 2437.19 835 2451 835 2464.81 835 2476 846.193 2476 860 2476 873.807 2464.81 885 2451 885 2437.19 885 2426 873.807 2426 860Z" fill="#27CED7" fill-rule="evenodd" fill-opacity="1"/></g><g clip-path="url(#clip63)"><path d="M2669 1067.5C2669 1052.31 2681.09 1040 2696 1040 2710.91 1040 2723 1052.31 2723 1067.5 2723 1082.69 2710.91 1095 2696 1095 2681.09 1095 2669 1082.69 2669 1067.5Z" fill="#27CED7" fill-rule="evenodd" fill-opacity="1"/></g><g clip-path="url(#clip64)"><path d="M2463 591.5C2463 577.417 2474.19 566 2488 566 2501.81 566 2513 577.417 2513 591.5 2513 605.583 2501.81 617 2488 617 2474.19 617 2463 605.583 2463 591.5Z" fill="#27CED7" fill-rule="evenodd" fill-opacity="1"/></g><g clip-path="url(#clip65)"><path d="M2781 976C2781 960.536 2793.76 948 2809.5 948 2825.24 948 2838 960.536 2838 976 2838 991.464 2825.24 1004 2809.5 1004 2793.76 1004 2781 991.464 2781 976Z" fill="#27CED7" fill-rule="evenodd" fill-opacity="1"/></g><g clip-path="url(#clip66)"><path d="M2397 891C2397 877.193 2408.19 866 2422 866 2435.81 866 2447 877.193 2447 891 2447 904.807 2435.81 916 2422 916 2408.19 916 2397 904.807 2397 891Z" fill="#27CED7" fill-rule="evenodd" fill-opacity="1"/></g><g clip-path="url(#clip67)"><path d="M2723 935.5C2723 920.312 2735.54 908 2751 908 2766.46 908 2779 920.312 2779 935.5 2779 950.688 2766.46 963 2751 963 2735.54 963 2723 950.688 2723 935.5Z" fill="#27CED7" fill-rule="evenodd" fill-opacity="1"/></g><g clip-path="url(#clip68)"><path d="M2720 862.5C2720 847.312 2732.31 835 2747.5 835 2762.69 835 2775 847.312 2775 862.5 2775 877.688 2762.69 890 2747.5 890 2732.31 890 2720 877.688 2720 862.5Z" fill="#27CED7" fill-rule="evenodd" fill-opacity="1"/></g><g clip-path="url(#clip69)"><path d="M2546 800C2546 785.641 2557.64 774 2572 774 2586.36 774 2598 785.641 2598 800 2598 814.359 2586.36 826 2572 826 2557.64 826 2546 814.359 2546 800Z" fill="#27CED7" fill-rule="evenodd" fill-opacity="1"/></g><g clip-path="url(#clip70)"><path d="M2546 989C2546 974.64 2557.64 963 2572 963 2586.36 963 2598 974.64 2598 989 2598 1003.36 2586.36 1015 2572 1015 2557.64 1015 2546 1003.36 2546 989Z" fill="#27CED7" fill-rule="evenodd" fill-opacity="1"/></g><g clip-path="url(#clip71)"><path d="M3892 1477C3892 1457.12 3908.12 1441 3928 1441 3947.88 1441 3964 1457.12 3964 1477 3964 1496.88 3947.88 1513 3928 1513 3908.12 1513 3892 1496.88 3892 1477Z" fill="#42BA97" fill-rule="evenodd" fill-opacity="1"/></g><g clip-path="url(#clip72)"><path d="M3681 1197C3681 1177.67 3696.67 1162 3716 1162 3735.33 1162 3751 1177.67 3751 1197 3751 1216.33 3735.33 1232 3716 1232 3696.67 1232 3681 1216.33 3681 1197Z" fill="#42BA97" fill-rule="evenodd" fill-opacity="1"/></g><g clip-path="url(#clip73)"><path d="M3478 1051.5C3478 1033 3493 1018 3511.5 1018 3530 1018 3545 1033 3545 1051.5 3545 1070 3530 1085 3511.5 1085 3493 1085 3478 1070 3478 1051.5Z" fill="#42BA97" fill-rule="evenodd" fill-opacity="1"/></g><g clip-path="url(#clip74)"><path d="M2841 1240.5C2841 1224.76 2853.76 1212 2869.5 1212 2885.24 1212 2898 1224.76 2898 1240.5 2898 1256.24 2885.24 1269 2869.5 1269 2853.76 1269 2841 1256.24 2841 1240.5Z" fill="#3E8853" fill-rule="evenodd" fill-opacity="1"/></g><g clip-path="url(#clip75)"><path d="M2736 1209.5C2736 1194.31 2748.54 1182 2764 1182 2779.46 1182 2792 1194.31 2792 1209.5 2792 1224.69 2779.46 1237 2764 1237 2748.54 1237 2736 1224.69 2736 1209.5Z" fill="#3E8853" fill-rule="evenodd" fill-opacity="1"/></g><g clip-path="url(#clip76)"><path d="M2407 1020C2407 1006.19 2417.97 995 2431.5 995 2445.03 995 2456 1006.19 2456 1020 2456 1033.81 2445.03 1045 2431.5 1045 2417.97 1045 2407 1033.81 2407 1020Z" fill="#3E8853" fill-rule="evenodd" fill-opacity="1"/></g><g clip-path="url(#clip77)"><path d="M2773 1241C2773 1225.54 2785.54 1213 2801 1213 2816.46 1213 2829 1225.54 2829 1241 2829 1256.46 2816.46 1269 2801 1269 2785.54 1269 2773 1256.46 2773 1241Z" fill="#3E8853" fill-rule="evenodd" fill-opacity="1"/></g><g clip-path="url(#clip78)"><path d="M2938 1272.5C2938 1256.21 2951.21 1243 2967.5 1243 2983.79 1243 2997 1256.21 2997 1272.5 2997 1288.79 2983.79 1302 2967.5 1302 2951.21 1302 2938 1288.79 2938 1272.5Z" fill="#3E8853" fill-rule="evenodd" fill-opacity="1"/></g><g clip-path="url(#clip79)"><path d="M2644 1146C2644 1131.09 2656.09 1119 2671 1119 2685.91 1119 2698 1131.09 2698 1146 2698 1160.91 2685.91 1173 2671 1173 2656.09 1173 2644 1160.91 2644 1146Z" fill="#3E8853" fill-rule="evenodd" fill-opacity="1"/></g><g clip-path="url(#clip80)"><path d="M2773 1367C2773 1351.54 2785.76 1339 2801.5 1339 2817.24 1339 2830 1351.54 2830 1367 2830 1382.46 2817.24 1395 2801.5 1395 2785.76 1395 2773 1382.46 2773 1367Z" fill="#3E8853" fill-rule="evenodd" fill-opacity="1"/></g><g clip-path="url(#clip81)"><path d="M3156 1367C3156 1349.88 3170.1 1336 3187.5 1336 3204.9 1336 3219 1349.88 3219 1367 3219 1384.12 3204.9 1398 3187.5 1398 3170.1 1398 3156 1384.12 3156 1367Z" fill="#3E8853" fill-rule="evenodd" fill-opacity="1"/></g><g clip-path="url(#clip82)"><path d="M2453 989C2453 975.193 2464.19 964 2478 964 2491.81 964 2503 975.193 2503 989 2503 1002.81 2491.81 1014 2478 1014 2464.19 1014 2453 1002.81 2453 989Z" fill="#3E8853" fill-rule="evenodd" fill-opacity="1"/></g><g clip-path="url(#clip83)"><path d="M2317 1020C2317 1006.74 2327.74 996 2341 996 2354.25 996 2365 1006.74 2365 1020 2365 1033.25 2354.25 1044 2341 1044 2327.74 1044 2317 1033.25 2317 1020Z" fill="#3E8853" fill-rule="evenodd" fill-opacity="1"/></g><g clip-path="url(#clip84)"><path d="M2695 1083.5C2695 1068.31 2707.31 1056 2722.5 1056 2737.69 1056 2750 1068.31 2750 1083.5 2750 1098.69 2737.69 1111 2722.5 1111 2707.31 1111 2695 1098.69 2695 1083.5Z" fill="#3E8853" fill-rule="evenodd" fill-opacity="1"/></g><g clip-path="url(#clip85)"><path d="M3080 1240.5C3080 1223.66 3093.66 1210 3110.5 1210 3127.34 1210 3141 1223.66 3141 1240.5 3141 1257.34 3127.34 1271 3110.5 1271 3093.66 1271 3080 1257.34 3080 1240.5Z" fill="#3E8853" fill-rule="evenodd" fill-opacity="1"/></g><g clip-path="url(#clip86)"><path d="M2684 1114.5C2684 1099.31 2696.09 1087 2711 1087 2725.91 1087 2738 1099.31 2738 1114.5 2738 1129.69 2725.91 1142 2711 1142 2696.09 1142 2684 1129.69 2684 1114.5Z" fill="#3E8853" fill-rule="evenodd" fill-opacity="1"/></g><g clip-path="url(#clip87)"><path d="M3246 1398C3246 1380.33 3260.1 1366 3277.5 1366 3294.9 1366 3309 1380.33 3309 1398 3309 1415.67 3294.9 1430 3277.5 1430 3260.1 1430 3246 1415.67 3246 1398Z" fill="#3E8853" fill-rule="evenodd" fill-opacity="1"/></g><g clip-path="url(#clip88)"><path d="M2763 1178C2763 1162.54 2775.54 1150 2791 1150 2806.46 1150 2819 1162.54 2819 1178 2819 1193.46 2806.46 1206 2791 1206 2775.54 1206 2763 1193.46 2763 1178Z" fill="#3E8853" fill-rule="evenodd" fill-opacity="1"/></g><g clip-path="url(#clip89)"><path d="M2977 1130.5C2977 1114.21 2990.43 1101 3007 1101 3023.57 1101 3037 1114.21 3037 1130.5 3037 1146.79 3023.57 1160 3007 1160 2990.43 1160 2977 1146.79 2977 1130.5Z" fill="#3E8853" fill-rule="evenodd" fill-opacity="1"/></g><g clip-path="url(#clip90)"><path d="M2945 1332.5C2945 1316.21 2958.21 1303 2974.5 1303 2990.79 1303 3004 1316.21 3004 1332.5 3004 1348.79 2990.79 1362 2974.5 1362 2958.21 1362 2945 1348.79 2945 1332.5Z" fill="#3E8853" fill-rule="evenodd" fill-opacity="1"/></g><g clip-path="url(#clip91)"><path d="M2548 796.5C2548 781.864 2559.64 770 2574 770 2588.36 770 2600 781.864 2600 796.5 2600 811.135 2588.36 823 2574 823 2559.64 823 2548 811.135 2548 796.5Z" fill="#3E8853" fill-rule="evenodd" fill-opacity="1"/></g><g clip-path="url(#clip92)"><path d="M3087 1058C3087 1040.88 3100.66 1027 3117.5 1027 3134.34 1027 3148 1040.88 3148 1058 3148 1075.12 3134.34 1089 3117.5 1089 3100.66 1089 3087 1075.12 3087 1058Z" fill="#3E8853" fill-rule="evenodd" fill-opacity="1"/></g><g clip-path="url(#clip93)"><path d="M2763 982C2763 966.536 2775.54 954 2791 954 2806.46 954 2819 966.536 2819 982 2819 997.464 2806.46 1010 2791 1010 2775.54 1010 2763 997.464 2763 982Z" fill="#3E8853" fill-rule="evenodd" fill-opacity="1"/></g><g clip-path="url(#clip94)"><path d="M2394 765C2394 751.193 2404.97 740 2418.5 740 2432.03 740 2443 751.193 2443 765 2443 778.807 2432.03 790 2418.5 790 2404.97 790 2394 778.807 2394 765Z" fill="#3E8853" fill-rule="evenodd" fill-opacity="1"/></g><g clip-path="url(#clip95)"><path d="M2608 809.5C2608 794.865 2619.86 783 2634.5 783 2649.14 783 2661 794.865 2661 809.5 2661 824.136 2649.14 836 2634.5 836 2619.86 836 2608 824.136 2608 809.5Z" fill="#3E8853" fill-rule="evenodd" fill-opacity="1"/></g><g clip-path="url(#clip96)"><path d="M2825 976.5C2825 960.76 2837.76 948 2853.5 948 2869.24 948 2882 960.76 2882 976.5 2882 992.24 2869.24 1005 2853.5 1005 2837.76 1005 2825 992.24 2825 976.5Z" fill="#3E8853" fill-rule="evenodd" fill-opacity="1"/></g><g clip-path="url(#clip97)"><path d="M3224 1196.5C3224 1179.1 3238.1 1165 3255.5 1165 3272.9 1165 3287 1179.1 3287 1196.5 3287 1213.9 3272.9 1228 3255.5 1228 3238.1 1228 3224 1213.9 3224 1196.5Z" fill="#3E8853" fill-rule="evenodd" fill-opacity="1"/></g><g clip-path="url(#clip98)"><path d="M2749 926C2749 910.536 2761.54 898 2777 898 2792.46 898 2805 910.536 2805 926 2805 941.464 2792.46 954 2777 954 2761.54 954 2749 941.464 2749 926Z" fill="#3E8853" fill-rule="evenodd" fill-opacity="1"/></g><g clip-path="url(#clip99)"><path d="M3053 988.5C3053 971.655 3066.66 958 3083.5 958 3100.34 958 3114 971.655 3114 988.5 3114 1005.34 3100.34 1019 3083.5 1019 3066.66 1019 3053 1005.34 3053 988.5Z" fill="#3E8853" fill-rule="evenodd" fill-opacity="1"/></g><g clip-path="url(#clip100)"><text fill="#595959" fill-opacity="1" font-family="Century Gothic,Century Gothic_MSFontService,sans-serif" font-style="normal" font-variant="normal" font-weight="400" font-stretch="normal" font-size="41" text-anchor="start" direction="ltr" writing-mode="lr-tb" unicode-bidi="normal" text-decoration="none" transform="matrix(1 0 0 1 2171.33 2009)">0</text></g><g clip-path="url(#clip101)"><text fill="#595959" fill-opacity="1" font-family="Century Gothic,Century Gothic_MSFontService,sans-serif" font-style="normal" font-variant="normal" font-weight="400" font-stretch="normal" font-size="41" text-anchor="start" direction="ltr" writing-mode="lr-tb" unicode-bidi="normal" text-decoration="none" transform="matrix(1 0 0 1 2171.33 1852)">5</text></g><g clip-path="url(#clip102)"><text fill="#595959" fill-opacity="1" font-family="Century Gothic,Century Gothic_MSFontService,sans-serif" font-style="normal" font-variant="normal" font-weight="400" font-stretch="normal" font-size="41" text-anchor="start" direction="ltr" writing-mode="lr-tb" unicode-bidi="normal" text-decoration="none" transform="matrix(1 0 0 1 2148.46 1694)">10</text></g><g clip-path="url(#clip103)"><text fill="#595959" fill-opacity="1" font-family="Century Gothic,Century Gothic_MSFontService,sans-serif" font-style="normal" font-variant="normal" font-weight="400" font-stretch="normal" font-size="41" text-anchor="start" direction="ltr" writing-mode="lr-tb" unicode-bidi="normal" text-decoration="none" transform="matrix(1 0 0 1 2148.46 1537)">15</text></g><g clip-path="url(#clip104)"><text fill="#595959" fill-opacity="1" font-family="Century Gothic,Century Gothic_MSFontService,sans-serif" font-style="normal" font-variant="normal" font-weight="400" font-stretch="normal" font-size="41" text-anchor="start" direction="ltr" writing-mode="lr-tb" unicode-bidi="normal" text-decoration="none" transform="matrix(1 0 0 1 2148.46 1379)">20</text></g><g clip-path="url(#clip105)"><text fill="#595959" fill-opacity="1" font-family="Century Gothic,Century Gothic_MSFontService,sans-serif" font-style="normal" font-variant="normal" font-weight="400" font-stretch="normal" font-size="41" text-anchor="start" direction="ltr" writing-mode="lr-tb" unicode-bidi="normal" text-decoration="none" transform="matrix(1 0 0 1 2148.46 1222)">25</text></g><g clip-path="url(#clip106)"><text fill="#595959" fill-opacity="1" font-family="Century Gothic,Century Gothic_MSFontService,sans-serif" font-style="normal" font-variant="normal" font-weight="400" font-stretch="normal" font-size="41" text-anchor="start" direction="ltr" writing-mode="lr-tb" unicode-bidi="normal" text-decoration="none" transform="matrix(1 0 0 1 2148.46 1064)">30</text></g><g clip-path="url(#clip107)"><text fill="#595959" fill-opacity="1" font-family="Century Gothic,Century Gothic_MSFontService,sans-serif" font-style="normal" font-variant="normal" font-weight="400" font-stretch="normal" font-size="41" text-anchor="start" direction="ltr" writing-mode="lr-tb" unicode-bidi="normal" text-decoration="none" transform="matrix(1 0 0 1 2148.46 907)">35</text></g><g clip-path="url(#clip108)"><text fill="#595959" fill-opacity="1" font-family="Century Gothic,Century Gothic_MSFontService,sans-serif" font-style="normal" font-variant="normal" font-weight="400" font-stretch="normal" font-size="41" text-anchor="start" direction="ltr" writing-mode="lr-tb" unicode-bidi="normal" text-decoration="none" transform="matrix(1 0 0 1 2148.46 749)">40</text></g><g clip-path="url(#clip109)"><text fill="#595959" fill-opacity="1" font-family="Century Gothic,Century Gothic_MSFontService,sans-serif" font-style="normal" font-variant="normal" font-weight="400" font-stretch="normal" font-size="41" text-anchor="start" direction="ltr" writing-mode="lr-tb" unicode-bidi="normal" text-decoration="none" transform="matrix(1 0 0 1 2148.46 592)">45</text></g><g clip-path="url(#clip110)"><text fill="#595959" fill-opacity="1" font-family="Century Gothic,Century Gothic_MSFontService,sans-serif" font-style="normal" font-variant="normal" font-weight="400" font-stretch="normal" font-size="41" text-anchor="start" direction="ltr" writing-mode="lr-tb" unicode-bidi="normal" text-decoration="none" transform="matrix(1 0 0 1 2148.46 434)">50</text></g><g clip-path="url(#clip111)"><text fill="#595959" fill-opacity="1" font-family="Century Gothic,Century Gothic_MSFontService,sans-serif" font-style="normal" font-variant="normal" font-weight="400" font-stretch="normal" font-size="41" text-anchor="start" direction="ltr" writing-mode="lr-tb" unicode-bidi="normal" text-decoration="none" transform="matrix(1 0 0 1 2186.38 2064)">1500</text></g><g clip-path="url(#clip112)"><text fill="#595959" fill-opacity="1" font-family="Century Gothic,Century Gothic_MSFontService,sans-serif" font-style="normal" font-variant="normal" font-weight="400" font-stretch="normal" font-size="41" text-anchor="start" direction="ltr" writing-mode="lr-tb" unicode-bidi="normal" text-decoration="none" transform="matrix(1 0 0 1 2551.86 2064)">2000</text></g><g clip-path="url(#clip113)"><text fill="#595959" fill-opacity="1" font-family="Century Gothic,Century Gothic_MSFontService,sans-serif" font-style="normal" font-variant="normal" font-weight="400" font-stretch="normal" font-size="41" text-anchor="start" direction="ltr" writing-mode="lr-tb" unicode-bidi="normal" text-decoration="none" transform="matrix(1 0 0 1 2917.33 2064)">2500</text></g><g clip-path="url(#clip114)"><text fill="#595959" fill-opacity="1" font-family="Century Gothic,Century Gothic_MSFontService,sans-serif" font-style="normal" font-variant="normal" font-weight="400" font-stretch="normal" font-size="41" text-anchor="start" direction="ltr" writing-mode="lr-tb" unicode-bidi="normal" text-decoration="none" transform="matrix(1 0 0 1 3282.81 2064)">3000</text></g><g clip-path="url(#clip115)"><text fill="#595959" fill-opacity="1" font-family="Century Gothic,Century Gothic_MSFontService,sans-serif" font-style="normal" font-variant="normal" font-weight="400" font-stretch="normal" font-size="41" text-anchor="start" direction="ltr" writing-mode="lr-tb" unicode-bidi="normal" text-decoration="none" transform="matrix(1 0 0 1 3648.29 2064)">3500</text></g><g clip-path="url(#clip116)"><text fill="#595959" fill-opacity="1" font-family="Century Gothic,Century Gothic_MSFontService,sans-serif" font-style="normal" font-variant="normal" font-weight="400" font-stretch="normal" font-size="41" text-anchor="start" direction="ltr" writing-mode="lr-tb" unicode-bidi="normal" text-decoration="none" transform="matrix(1 0 0 1 4013.77 2064)">4000</text></g><g clip-path="url(#clip117)"><text fill="#595959" fill-opacity="1" font-family="Century Gothic,Century Gothic_MSFontService,sans-serif" font-style="normal" font-variant="normal" font-weight="400" font-stretch="normal" font-size="41" text-anchor="start" direction="ltr" writing-mode="lr-tb" unicode-bidi="normal" text-decoration="none" transform="matrix(1 0 0 1 4379.24 2064)">4500</text></g><g clip-path="url(#clip118)"><text fill="#595959" fill-opacity="1" font-family="Century Gothic,Century Gothic_MSFontService,sans-serif" font-style="normal" font-variant="normal" font-weight="400" font-stretch="normal" font-size="41" text-anchor="start" direction="ltr" writing-mode="lr-tb" unicode-bidi="normal" text-decoration="none" transform="matrix(1 0 0 1 4744.72 2064)">5000</text></g><g clip-path="url(#clip119)"><text fill="#595959" fill-opacity="1" font-family="Century Gothic,Century Gothic_MSFontService,sans-serif" font-style="normal" font-variant="normal" font-weight="400" font-stretch="normal" font-size="46" text-anchor="start" direction="ltr" writing-mode="lr-tb" unicode-bidi="normal" text-decoration="none" transform="matrix(6.12323e-17 -1 1 6.12323e-17 2124.54 1264)">MPG</text></g><g clip-path="url(#clip120)"><text fill="#595959" fill-opacity="1" font-family="Century Gothic,Century Gothic_MSFontService,sans-serif" font-style="normal" font-variant="normal" font-weight="400" font-stretch="normal" font-size="46" text-anchor="start" direction="ltr" writing-mode="lr-tb" unicode-bidi="normal" text-decoration="none" transform="matrix(1 0 0 1 3438.99 2133)">Weight</text></g><g clip-path="url(#clip121)"><path d="M4908 1133C4908 1126.92 4912.92 1122 4919 1122 4925.08 1122 4930 1126.92 4930 1133 4930 1139.08 4925.08 1144 4919 1144 4912.92 1144 4908 1139.08 4908 1133Z" fill="#1CADE4" fill-rule="evenodd" fill-opacity="1"/></g><g clip-path="url(#clip122)"><text fill="#595959" fill-opacity="1" font-family="Century Gothic,Century Gothic_MSFontService,sans-serif" font-style="normal" font-variant="normal" font-weight="400" font-stretch="normal" font-size="41" text-anchor="start" direction="ltr" writing-mode="lr-tb" unicode-bidi="normal" text-decoration="none" transform="matrix(1 0 0 1 4939.43 1146)">bmw</text></g><g clip-path="url(#clip123)"><path d="M4908 1209.5C4908 1203.15 4912.92 1198 4919 1198 4925.08 1198 4930 1203.15 4930 1209.5 4930 1215.85 4925.08 1221 4919 1221 4912.92 1221 4908 1215.85 4908 1209.5Z" fill="#2683C6" fill-rule="evenodd" fill-opacity="1"/></g><g clip-path="url(#clip124)"><text fill="#595959" fill-opacity="1" font-family="Century Gothic,Century Gothic_MSFontService,sans-serif" font-style="normal" font-variant="normal" font-weight="400" font-stretch="normal" font-size="41" text-anchor="start" direction="ltr" writing-mode="lr-tb" unicode-bidi="normal" text-decoration="none" transform="matrix(1 0 0 1 4939.43 1222)">ford</text></g><g clip-path="url(#clip125)"><path d="M4908 1286C4908 1279.92 4912.92 1275 4919 1275 4925.08 1275 4930 1279.92 4930 1286 4930 1292.08 4925.08 1297 4919 1297 4912.92 1297 4908 1292.08 4908 1286Z" fill="#27CED7" fill-rule="evenodd" fill-opacity="1"/></g><g clip-path="url(#clip126)"><text fill="#595959" fill-opacity="1" font-family="Century Gothic,Century Gothic_MSFontService,sans-serif" font-style="normal" font-variant="normal" font-weight="400" font-stretch="normal" font-size="41" text-anchor="start" direction="ltr" writing-mode="lr-tb" unicode-bidi="normal" text-decoration="none" transform="matrix(1 0 0 1 4939.43 1298)">honda</text></g><g clip-path="url(#clip127)"><path d="M4908 1362C4908 1355.92 4912.92 1351 4919 1351 4925.08 1351 4930 1355.92 4930 1362 4930 1368.07 4925.08 1373 4919 1373 4912.92 1373 4908 1368.07 4908 1362Z" fill="#42BA97" fill-rule="evenodd" fill-opacity="1"/></g><g clip-path="url(#clip128)"><text fill="#595959" fill-opacity="1" font-family="Century Gothic,Century Gothic_MSFontService,sans-serif" font-style="normal" font-variant="normal" font-weight="400" font-stretch="normal" font-size="41" text-anchor="start" direction="ltr" writing-mode="lr-tb" unicode-bidi="normal" text-decoration="none" transform="matrix(1 0 0 1 4939.43 1374)">mercedes</text></g><g clip-path="url(#clip129)"><path d="M4908 1438C4908 1431.92 4912.92 1427 4919 1427 4925.08 1427 4930 1431.92 4930 1438 4930 1444.07 4925.08 1449 4919 1449 4912.92 1449 4908 1444.07 4908 1438Z" fill="#3E8853" fill-rule="evenodd" fill-opacity="1"/></g><g clip-path="url(#clip130)"><text fill="#595959" fill-opacity="1" font-family="Century Gothic,Century Gothic_MSFontService,sans-serif" font-style="normal" font-variant="normal" font-weight="400" font-stretch="normal" font-size="41" text-anchor="start" direction="ltr" writing-mode="lr-tb" unicode-bidi="normal" text-decoration="none" transform="matrix(1 0 0 1 4939.43 1450)">toyota</text></g><rect x="2021.5" y="371.5" width="3167" height="1829" stroke="#D9D9D9" stroke-width="3.4375" stroke-linecap="butt" stroke-linejoin="round" stroke-miterlimit="10" stroke-opacity="1" fill="none"/></g></svg>