<svg width="2763" height="1838" xmlns="http://www.w3.org/2000/svg" xmlns:xlink="http://www.w3.org/1999/xlink" overflow="hidden"><defs><clipPath id="clip0"><rect x="1769" y="366" width="2763" height="1838"/></clipPath><clipPath id="clip1"><rect x="1773" y="371" width="2755" height="1829"/></clipPath><clipPath id="clip2"><rect x="1773" y="371" width="2755" height="1829"/></clipPath><clipPath id="clip3"><rect x="1773" y="371" width="2755" height="1829"/></clipPath><clipPath id="clip4"><rect x="1773" y="371" width="2755" height="1829"/></clipPath><clipPath id="clip5"><rect x="1980" y="421" width="2195" height="1578"/></clipPath><clipPath id="clip6"><rect x="1980" y="421" width="2195" height="1578"/></clipPath><clipPath id="clip7"><rect x="1980" y="421" width="2195" height="1578"/></clipPath><clipPath id="clip8"><rect x="1980" y="421" width="2195" height="1578"/></clipPath><clipPath id="clip9"><rect x="1980" y="421" width="2195" height="1578"/></clipPath><clipPath id="clip10"><rect x="1980" y="421" width="2195" height="1578"/></clipPath><clipPath id="clip11"><rect x="1980" y="421" width="2195" height="1578"/></clipPath><clipPath id="clip12"><rect x="1980" y="421" width="2195" height="1578"/></clipPath><clipPath id="clip13"><rect x="1980" y="421" width="2195" height="1578"/></clipPath><clipPath id="clip14"><rect x="1980" y="421" width="2195" height="1578"/></clipPath><clipPath id="clip15"><rect x="1980" y="421" width="2195" height="1578"/></clipPath><clipPath id="clip16"><rect x="1980" y="421" width="2195" height="1578"/></clipPath><clipPath id="clip17"><rect x="1980" y="421" width="2195" height="1578"/></clipPath><clipPath id="clip18"><rect x="1980" y="421" width="2195" height="1578"/></clipPath><clipPath id="clip19"><rect x="1980" y="421" width="2195" height="1578"/></clipPath><clipPath id="clip20"><rect x="1980" y="421" width="2195" height="1578"/></clipPath><clipPath id="clip21"><rect x="1980" y="421" width="2195" height="1578"/></clipPath><clipPath id="clip22"><rect x="1980" y="421" width="2195" height="1578"/></clipPath><clipPath id="clip23"><rect x="1980" y="421" width="2195" height="1578"/></clipPath><clipPath id="clip24"><rect x="1980" y="421" width="2195" height="1578"/></clipPath><clipPath id="clip25"><rect x="1980" y="421" width="2195" height="1578"/></clipPath><clipPath id="clip26"><rect x="1980" y="421" width="2195" height="1578"/></clipPath><clipPath id="clip27"><rect x="1980" y="421" width="2195" height="1578"/></clipPath><clipPath id="clip28"><rect x="1980" y="421" width="2195" height="1578"/></clipPath><clipPath id="clip29"><rect x="1980" y="421" width="2195" height="1578"/></clipPath><clipPath id="clip30"><rect x="1980" y="421" width="2195" height="1578"/></clipPath><clipPath id="clip31"><rect x="1980" y="421" width="2195" height="1578"/></clipPath><clipPath id="clip32"><rect x="1980" y="421" width="2195" height="1578"/></clipPath><clipPath id="clip33"><rect x="1980" y="421" width="2195" height="1578"/></clipPath><clipPath id="clip34"><rect x="1980" y="421" width="2195" height="1578"/></clipPath><clipPath id="clip35"><rect x="1980" y="421" width="2195" height="1578"/></clipPath><clipPath id="clip36"><rect x="1980" y="421" width="2195" height="1578"/></clipPath><clipPath id="clip37"><rect x="1980" y="421" width="2195" height="1578"/></clipPath><clipPath id="clip38"><rect x="1980" y="421" width="2195" height="1578"/></clipPath><clipPath id="clip39"><rect x="1980" y="421" width="2195" height="1578"/></clipPath><clipPath id="clip40"><rect x="1980" y="421" width="2195" height="1578"/></clipPath><clipPath id="clip41"><rect x="1980" y="421" width="2195" height="1578"/></clipPath><clipPath id="clip42"><rect x="1980" y="421" width="2195" height="1578"/></clipPath><clipPath id="clip43"><rect x="1980" y="421" width="2195" height="1578"/></clipPath><clipPath id="clip44"><rect x="1980" y="421" width="2195" height="1578"/></clipPath><clipPath id="clip45"><rect x="1980" y="421" width="2195" height="1578"/></clipPath><clipPath id="clip46"><rect x="1980" y="421" width="2195" height="1578"/></clipPath><clipPath id="clip47"><rect x="1980" y="421" width="2195" height="1578"/></clipPath><clipPath id="clip48"><rect x="1980" y="421" width="2195" height="1578"/></clipPath><clipPath id="clip49"><rect x="1980" y="421" width="2195" height="1578"/></clipPath><clipPath id="clip50"><rect x="1980" y="421" width="2195" height="1578"/></clipPath><clipPath id="clip51"><rect x="1980" y="421" width="2195" height="1578"/></clipPath><clipPath id="clip52"><rect x="1980" y="421" width="2195" height="1578"/></clipPath><clipPath id="clip53"><rect x="1980" y="421" width="2195" height="1578"/></clipPath><clipPath id="clip54"><rect x="1980" y="421" width="2195" height="1578"/></clipPath><clipPath id="clip55"><rect x="1980" y="421" width="2195" height="1578"/></clipPath><clipPath id="clip56"><rect x="1980" y="421" width="2195" height="1578"/></clipPath><clipPath id="clip57"><rect x="1980" y="421" width="2195" height="1578"/></clipPath><clipPath id="clip58"><rect x="1980" y="421" width="2195" height="1578"/></clipPath><clipPath id="clip59"><rect x="1980" y="421" width="2195" height="1578"/></clipPath><clipPath id="clip60"><rect x="1980" y="421" width="2195" height="1578"/></clipPath><clipPath id="clip61"><rect x="1980" y="421" width="2195" height="1578"/></clipPath><clipPath id="clip62"><rect x="1980" y="421" width="2195" height="1578"/></clipPath><clipPath id="clip63"><rect x="1980" y="421" width="2195" height="1578"/></clipPath><clipPath id="clip64"><rect x="1980" y="421" width="2195" height="1578"/></clipPath><clipPath id="clip65"><rect x="1980" y="421" width="2195" height="1578"/></clipPath><clipPath id="clip66"><rect x="1980" y="421" width="2195" height="1578"/></clipPath><clipPath id="clip67"><rect x="1980" y="421" width="2195" height="1578"/></clipPath><clipPath id="clip68"><rect x="1980" y="421" width="2195" height="1578"/></clipPath><clipPath id="clip69"><rect x="1980" y="421" width="2195" height="1578"/></clipPath><clipPath id="clip70"><rect x="1980" y="421" width="2195" height="1578"/></clipPath><clipPath id="clip71"><rect x="1980" y="421" width="2195" height="1578"/></clipPath><clipPath id="clip72"><rect x="1980" y="421" width="2195" height="1578"/></clipPath><clipPath id="clip73"><rect x="1980" y="421" width="2195" height="1578"/></clipPath><clipPath id="clip74"><rect x="1980" y="421" width="2195" height="1578"/></clipPath><clipPath id="clip75"><rect x="1980" y="421" width="2195" height="1578"/></clipPath><clipPath id="clip76"><rect x="1980" y="421" width="2195" height="1578"/></clipPath><clipPath id="clip77"><rect x="1980" y="421" width="2195" height="1578"/></clipPath><clipPath id="clip78"><rect x="1980" y="421" width="2195" height="1578"/></clipPath><clipPath id="clip79"><rect x="1980" y="421" width="2195" height="1578"/></clipPath><clipPath id="clip80"><rect x="1980" y="421" width="2195" height="1578"/></clipPath><clipPath id="clip81"><rect x="1980" y="421" width="2195" height="1578"/></clipPath><clipPath id="clip82"><rect x="1980" y="421" width="2195" height="1578"/></clipPath><clipPath id="clip83"><rect x="1980" y="421" width="2195" height="1578"/></clipPath><clipPath id="clip84"><rect x="1980" y="421" width="2195" height="1578"/></clipPath><clipPath id="clip85"><rect x="1980" y="421" width="2195" height="1578"/></clipPath><clipPath id="clip86"><rect x="1980" y="421" width="2195" height="1578"/></clipPath><clipPath id="clip87"><rect x="1980" y="421" width="2195" height="1578"/></clipPath><clipPath id="clip88"><rect x="1980" y="421" width="2195" height="1578"/></clipPath><clipPath id="clip89"><rect x="1980" y="421" width="2195" height="1578"/></clipPath><clipPath id="clip90"><rect x="1980" y="421" width="2195" height="1578"/></clipPath><clipPath id="clip91"><rect x="1980" y="421" width="2195" height="1578"/></clipPath><clipPath id="clip92"><rect x="1980" y="421" width="2195" height="1578"/></clipPath><clipPath id="clip93"><rect x="1980" y="421" width="2195" height="1578"/></clipPath><clipPath id="clip94"><rect x="1980" y="421" width="2195" height="1578"/></clipPath><clipPath id="clip95"><rect x="1980" y="421" width="2195" height="1578"/></clipPath><clipPath id="clip96"><rect x="1980" y="421" width="2195" height="1578"/></clipPath><clipPath id="clip97"><rect x="1980" y="421" width="2195" height="1578"/></clipPath><clipPath id="clip98"><rect x="1980" y="421" width="2195" height="1578"/></clipPath><clipPath id="clip99"><rect x="1980" y="421" width="2195" height="1578"/></clipPath><clipPath id="clip100"><rect x="1773" y="371" width="2755" height="1829"/></clipPath><clipPath id="clip101"><rect x="1773" y="371" width="2755" height="1829"/></clipPath><clipPath id="clip102"><rect x="1773" y="371" width="2755" height="1829"/></clipPath><clipPath id="clip103"><rect x="1773" y="371" width="2755" height="1829"/></clipPath><clipPath id="clip104"><rect x="1773" y="371" width="2755" height="1829"/></clipPath><clipPath id="clip105"><rect x="1773" y="371" width="2755" height="1829"/></clipPath><clipPath id="clip106"><rect x="1773" y="371" width="2755" height="1829"/></clipPath><clipPath id="clip107"><rect x="1773" y="371" width="2755" height="1829"/></clipPath><clipPath id="clip108"><rect x="1773" y="371" width="2755" height="1829"/></clipPath><clipPath id="clip109"><rect x="1773" y="371" width="2755" height="1829"/></clipPath><clipPath id="clip110"><rect x="1773" y="371" width="2755" height="1829"/></clipPath><clipPath id="clip111"><rect x="1773" y="371" width="2755" height="1829"/></clipPath><clipPath id="clip112"><rect x="1773" y="371" width="2755" height="1829"/></clipPath><clipPath id="clip113"><rect x="1773" y="371" width="2755" height="1829"/></clipPath><clipPath id="clip114"><rect x="1773" y="371" width="2755" height="1829"/></clipPath><clipPath id="clip115"><rect x="1773" y="371" width="2755" height="1829"/></clipPath><clipPath id="clip116"><rect x="1773" y="371" width="2755" height="1829"/></clipPath><clipPath id="clip117"><rect x="1773" y="371" width="2755" height="1829"/></clipPath><clipPath id="clip118"><rect x="1773" y="371" width="2755" height="1829"/></clipPath><clipPath id="clip119"><rect x="1773" y="371" width="2755" height="1829"/></clipPath><clipPath id="clip120"><rect x="1773" y="371" width="2755" height="1829"/></clipPath><clipPath id="clip121"><rect x="1773" y="371" width="2755" height="1829"/></clipPath><clipPath id="clip122"><rect x="1773" y="371" width="2755" height="1829"/></clipPath><clipPath id="clip123"><rect x="1773" y="371" width="2755" height="1829"/></clipPath><clipPath id="clip124"><rect x="1773" y="371" width="2755" height="1829"/></clipPath><clipPath id="clip125"><rect x="1773" y="371" width="2755" height="1829"/></clipPath><clipPath id="clip126"><rect x="1773" y="371" width="2755" height="1829"/></clipPath><clipPath id="clip127"><rect x="1773" y="371" width="2755" height="1829"/></clipPath><clipPath id="clip128"><rect x="1773" y="371" width="2755" height="1829"/></clipPath><clipPath id="clip129"><rect x="1773" y="371" width="2755" height="1829"/></clipPath></defs><g clip-path="url(#clip0)" transform="translate(-1769 -366)"><rect x="1774" y="371" width="2754" height="1829" fill="#FFFFFF" fill-opacity="1"/><g clip-path="url(#clip1)"><path d="M1980.5 1838.56 4171.5 1838.56M1980.5 1681.56 4171.5 1681.56M1980.5 1523.55 4171.5 1523.55M1980.5 1366.55 4171.5 1366.55M1980.5 1209.54 4171.5 1209.54M1980.5 1051.53 4171.5 1051.53M1980.5 894.53 4171.5 894.53M1980.5 736.524 4171.5 736.524M1980.5 579.519 4171.5 579.519M1980.5 421.5 4171.5 421.5" stroke="#D9D9D9" stroke-width="3.4375" stroke-linecap="butt" stroke-linejoin="round" stroke-miterlimit="10" stroke-opacity="1" fill="none" fill-rule="nonzero"/></g><g clip-path="url(#clip2)"><path d="M2345.58 421.5 2345.58 1996.5M2710.59 421.5 2710.59 1996.5M3076.6 421.5 3076.6 1996.5M3441.61 421.5 3441.61 1996.5M3806.62 421.5 3806.62 1996.5M4171.5 421.5 4171.5 1996.5" stroke="#D9D9D9" stroke-width="3.4375" stroke-linecap="butt" stroke-linejoin="round" stroke-miterlimit="10" stroke-opacity="1" fill="none" fill-rule="nonzero"/></g><g clip-path="url(#clip3)"><path d="M0 0 0.000360892 1575" stroke="#BFBFBF" stroke-width="3.4375" stroke-linecap="butt" stroke-linejoin="round" stroke-miterlimit="10" stroke-opacity="1" fill="none" fill-rule="evenodd" transform="matrix(1 0 0 -1 1980.5 1996.5)"/></g><g clip-path="url(#clip4)"><path d="M1980.5 1996.5 4171.5 1996.5" stroke="#BFBFBF" stroke-width="3.4375" stroke-linecap="butt" stroke-linejoin="round" stroke-miterlimit="10" stroke-opacity="1" fill="none" fill-rule="evenodd"/></g><g clip-path="url(#clip5)"><path d="M2734 1177.5C2734 1142.98 2761.98 1115 2796.5 1115 2831.02 1115 2859 1142.98 2859 1177.5 2859 1212.02 2831.02 1240 2796.5 1240 2761.98 1240 2734 1212.02 2734 1177.5Z" fill="#4472C4" fill-rule="evenodd" fill-opacity="1"/></g><g clip-path="url(#clip6)"><path d="M2900 1319C2900 1302.43 2913.43 1289 2930 1289 2946.57 1289 2960 1302.43 2960 1319 2960 1335.57 2946.57 1349 2930 1349 2913.43 1349 2900 1335.57 2900 1319Z" fill="#4472C4" fill-rule="evenodd" fill-opacity="1"/></g><g clip-path="url(#clip7)"><path d="M3206 1461C3206 1441.67 3221.45 1426 3240.5 1426 3259.55 1426 3275 1441.67 3275 1461 3275 1480.33 3259.55 1496 3240.5 1496 3221.45 1496 3206 1480.33 3206 1461Z" fill="#ED7D31" fill-rule="evenodd" fill-opacity="1"/></g><g clip-path="url(#clip8)"><path d="M3527 1524C3527 1502.46 3544.46 1485 3566 1485 3587.54 1485 3605 1502.46 3605 1524 3605 1545.54 3587.54 1563 3566 1563 3544.46 1563 3527 1545.54 3527 1524Z" fill="#ED7D31" fill-rule="evenodd" fill-opacity="1"/></g><g clip-path="url(#clip9)"><path d="M2895 1335C2895 1318.43 2908.43 1305 2925 1305 2941.57 1305 2955 1318.43 2955 1335 2955 1351.57 2941.57 1365 2925 1365 2908.43 1365 2895 1351.57 2895 1335Z" fill="#ED7D31" fill-rule="evenodd" fill-opacity="1"/></g><g clip-path="url(#clip10)"><path d="M3626 1681.5C3626 1659.68 3643.91 1642 3666 1642 3688.09 1642 3706 1659.68 3706 1681.5 3706 1703.32 3688.09 1721 3666 1721 3643.91 1721 3626 1703.32 3626 1681.5Z" fill="#ED7D31" fill-rule="evenodd" fill-opacity="1"/></g><g clip-path="url(#clip11)"><path d="M2701 1209C2701 1194.09 2712.86 1182 2727.5 1182 2742.14 1182 2754 1194.09 2754 1209 2754 1223.91 2742.14 1236 2727.5 1236 2712.86 1236 2701 1223.91 2701 1209Z" fill="#ED7D31" fill-rule="evenodd" fill-opacity="1"/></g><g clip-path="url(#clip12)"><path d="M3153 1398C3153 1379.22 3168 1364 3186.5 1364 3205 1364 3220 1379.22 3220 1398 3220 1416.78 3205 1432 3186.5 1432 3168 1432 3153 1416.78 3153 1398Z" fill="#ED7D31" fill-rule="evenodd" fill-opacity="1"/></g><g clip-path="url(#clip13)"><path d="M3460 1555.5C3460 1534.79 3476.79 1518 3497.5 1518 3518.21 1518 3535 1534.79 3535 1555.5 3535 1576.21 3518.21 1593 3497.5 1593 3476.79 1593 3460 1576.21 3460 1555.5Z" fill="#ED7D31" fill-rule="evenodd" fill-opacity="1"/></g><g clip-path="url(#clip14)"><path d="M3673 1587C3673 1564.36 3691.13 1546 3713.5 1546 3735.87 1546 3754 1564.36 3754 1587 3754 1609.64 3735.87 1628 3713.5 1628 3691.13 1628 3673 1609.64 3673 1587Z" fill="#ED7D31" fill-rule="evenodd" fill-opacity="1"/></g><g clip-path="url(#clip15)"><path d="M3094 1430C3094 1411.77 3108.77 1397 3127 1397 3145.23 1397 3160 1411.77 3160 1430 3160 1448.23 3145.23 1463 3127 1463 3108.77 1463 3094 1448.23 3094 1430Z" fill="#ED7D31" fill-rule="evenodd" fill-opacity="1"/></g><g clip-path="url(#clip16)"><path d="M2766 1335C2766 1319.54 2778.31 1307 2793.5 1307 2808.69 1307 2821 1319.54 2821 1335 2821 1350.46 2808.69 1363 2793.5 1363 2778.31 1363 2766 1350.46 2766 1335Z" fill="#ED7D31" fill-rule="evenodd" fill-opacity="1"/></g><g clip-path="url(#clip17)"><path d="M3451 1555.5C3451 1534.79 3467.79 1518 3488.5 1518 3509.21 1518 3526 1534.79 3526 1555.5 3526 1576.21 3509.21 1593 3488.5 1593 3467.79 1593 3451 1576.21 3451 1555.5Z" fill="#ED7D31" fill-rule="evenodd" fill-opacity="1"/></g><g clip-path="url(#clip18)"><path d="M3510 1587C3510 1565.46 3527.24 1548 3548.5 1548 3569.76 1548 3587 1565.46 3587 1587 3587 1608.54 3569.76 1626 3548.5 1626 3527.24 1626 3510 1608.54 3510 1587Z" fill="#ED7D31" fill-rule="evenodd" fill-opacity="1"/></g><g clip-path="url(#clip19)"><path d="M2826 1303.5C2826 1287.76 2838.98 1275 2855 1275 2871.02 1275 2884 1287.76 2884 1303.5 2884 1319.24 2871.02 1332 2855 1332 2838.98 1332 2826 1319.24 2826 1303.5Z" fill="#ED7D31" fill-rule="evenodd" fill-opacity="1"/></g><g clip-path="url(#clip20)"><path d="M3419 1555.5C3419 1534.79 3435.79 1518 3456.5 1518 3477.21 1518 3494 1534.79 3494 1555.5 3494 1576.21 3477.21 1593 3456.5 1593 3435.79 1593 3419 1576.21 3419 1555.5Z" fill="#ED7D31" fill-rule="evenodd" fill-opacity="1"/></g><g clip-path="url(#clip21)"><path d="M3535 1587C3535 1565.46 3552.46 1548 3574 1548 3595.54 1548 3613 1565.46 3613 1587 3613 1608.54 3595.54 1626 3574 1626 3552.46 1626 3535 1608.54 3535 1587Z" fill="#ED7D31" fill-rule="evenodd" fill-opacity="1"/></g><g clip-path="url(#clip22)"><path d="M3052 1429.5C3052 1411.55 3066.33 1397 3084 1397 3101.67 1397 3116 1411.55 3116 1429.5 3116 1447.45 3101.67 1462 3084 1462 3066.33 1462 3052 1447.45 3052 1429.5Z" fill="#ED7D31" fill-rule="evenodd" fill-opacity="1"/></g><g clip-path="url(#clip23)"><path d="M3731 1618.5C3731 1595.58 3749.36 1577 3772 1577 3794.64 1577 3813 1595.58 3813 1618.5 3813 1641.42 3794.64 1660 3772 1660 3749.36 1660 3731 1641.42 3731 1618.5Z" fill="#ED7D31" fill-rule="evenodd" fill-opacity="1"/></g><g clip-path="url(#clip24)"><path d="M2796 1398C2796 1382.54 2808.76 1370 2824.5 1370 2840.24 1370 2853 1382.54 2853 1398 2853 1413.46 2840.24 1426 2824.5 1426 2808.76 1426 2796 1413.46 2796 1398Z" fill="#ED7D31" fill-rule="evenodd" fill-opacity="1"/></g><g clip-path="url(#clip25)"><path d="M2999 1335.5C2999 1318.1 3013.1 1304 3030.5 1304 3047.9 1304 3062 1318.1 3062 1335.5 3062 1352.9 3047.9 1367 3030.5 1367 3013.1 1367 2999 1352.9 2999 1335.5Z" fill="#ED7D31" fill-rule="evenodd" fill-opacity="1"/></g><g clip-path="url(#clip26)"><path d="M2847 1177.5C2847 1161.21 2859.98 1148 2876 1148 2892.02 1148 2905 1161.21 2905 1177.5 2905 1193.79 2892.02 1207 2876 1207 2859.98 1207 2847 1193.79 2847 1177.5Z" fill="#ED7D31" fill-rule="evenodd" fill-opacity="1"/></g><g clip-path="url(#clip27)"><path d="M3455 1492.5C3455 1471.79 3472.01 1455 3493 1455 3513.99 1455 3531 1471.79 3531 1492.5 3531 1513.21 3513.99 1530 3493 1530 3472.01 1530 3455 1513.21 3455 1492.5Z" fill="#ED7D31" fill-rule="evenodd" fill-opacity="1"/></g><g clip-path="url(#clip28)"><path d="M3634 1555.5C3634 1533.13 3651.91 1515 3674 1515 3696.09 1515 3714 1533.13 3714 1555.5 3714 1577.87 3696.09 1596 3674 1596 3651.91 1596 3634 1577.87 3634 1555.5Z" fill="#ED7D31" fill-rule="evenodd" fill-opacity="1"/></g><g clip-path="url(#clip29)"><path d="M3101 1524C3101 1505.77 3115.77 1491 3134 1491 3152.23 1491 3167 1505.77 3167 1524 3167 1542.23 3152.23 1557 3134 1557 3115.77 1557 3101 1542.23 3101 1524Z" fill="#ED7D31" fill-rule="evenodd" fill-opacity="1"/></g><g clip-path="url(#clip30)"><path d="M3641 1555.5C3641 1533.13 3658.91 1515 3681 1515 3703.09 1515 3721 1533.13 3721 1555.5 3721 1577.87 3703.09 1596 3681 1596 3658.91 1596 3641 1577.87 3641 1555.5Z" fill="#ED7D31" fill-rule="evenodd" fill-opacity="1"/></g><g clip-path="url(#clip31)"><path d="M3105 1587C3105 1568.77 3119.77 1554 3138 1554 3156.23 1554 3171 1568.77 3171 1587 3171 1605.23 3156.23 1620 3138 1620 3119.77 1620 3105 1605.23 3105 1587Z" fill="#ED7D31" fill-rule="evenodd" fill-opacity="1"/></g><g clip-path="url(#clip32)"><path d="M2914 1272C2914 1255.43 2927.66 1242 2944.5 1242 2961.34 1242 2975 1255.43 2975 1272 2975 1288.57 2961.34 1302 2944.5 1302 2927.66 1302 2914 1288.57 2914 1272Z" fill="#ED7D31" fill-rule="evenodd" fill-opacity="1"/></g><g clip-path="url(#clip33)"><path d="M3038 1429.5C3038 1411.55 3052.55 1397 3070.5 1397 3088.45 1397 3103 1411.55 3103 1429.5 3103 1447.45 3088.45 1462 3070.5 1462 3052.55 1462 3038 1447.45 3038 1429.5Z" fill="#ED7D31" fill-rule="evenodd" fill-opacity="1"/></g><g clip-path="url(#clip34)"><path d="M3482 1540C3482 1519.01 3499.01 1502 3520 1502 3540.99 1502 3558 1519.01 3558 1540 3558 1560.99 3540.99 1578 3520 1578 3499.01 1578 3482 1560.99 3482 1540Z" fill="#ED7D31" fill-rule="evenodd" fill-opacity="1"/></g><g clip-path="url(#clip35)"><path d="M3048 1240.5C3048 1222.55 3062.55 1208 3080.5 1208 3098.45 1208 3113 1222.55 3113 1240.5 3113 1258.45 3098.45 1273 3080.5 1273 3062.55 1273 3048 1258.45 3048 1240.5Z" fill="#ED7D31" fill-rule="evenodd" fill-opacity="1"/></g><g clip-path="url(#clip36)"><path d="M3251 1429.5C3251 1409.89 3266.67 1394 3286 1394 3305.33 1394 3321 1409.89 3321 1429.5 3321 1449.11 3305.33 1465 3286 1465 3266.67 1465 3251 1449.11 3251 1429.5Z" fill="#ED7D31" fill-rule="evenodd" fill-opacity="1"/></g><g clip-path="url(#clip37)"><path d="M2888 1162C2888 1145.43 2901.21 1132 2917.5 1132 2933.79 1132 2947 1145.43 2947 1162 2947 1178.57 2933.79 1192 2917.5 1192 2901.21 1192 2888 1178.57 2888 1162Z" fill="#ED7D31" fill-rule="evenodd" fill-opacity="1"/></g><g clip-path="url(#clip38)"><path d="M3357 1587C3357 1566.57 3373.34 1550 3393.5 1550 3413.66 1550 3430 1566.57 3430 1587 3430 1607.43 3413.66 1624 3393.5 1624 3373.34 1624 3357 1607.43 3357 1587Z" fill="#ED7D31" fill-rule="evenodd" fill-opacity="1"/></g><g clip-path="url(#clip39)"><path d="M3233 1414C3233 1394.67 3248.67 1379 3268 1379 3287.33 1379 3303 1394.67 3303 1414 3303 1433.33 3287.33 1449 3268 1449 3248.67 1449 3233 1433.33 3233 1414Z" fill="#ED7D31" fill-rule="evenodd" fill-opacity="1"/></g><g clip-path="url(#clip40)"><path d="M3525 1492.5C3525 1471.24 3542.24 1454 3563.5 1454 3584.76 1454 3602 1471.24 3602 1492.5 3602 1513.76 3584.76 1531 3563.5 1531 3542.24 1531 3525 1513.76 3525 1492.5Z" fill="#ED7D31" fill-rule="evenodd" fill-opacity="1"/></g><g clip-path="url(#clip41)"><path d="M2956 1193C2956 1175.88 2969.88 1162 2987 1162 3004.12 1162 3018 1175.88 3018 1193 3018 1210.12 3004.12 1224 2987 1224 2969.88 1224 2956 1210.12 2956 1193Z" fill="#ED7D31" fill-rule="evenodd" fill-opacity="1"/></g><g clip-path="url(#clip42)"><path d="M2613 859C2613 845.193 2624.19 834 2638 834 2651.81 834 2663 845.193 2663 859 2663 872.807 2651.81 884 2638 884 2624.19 884 2613 872.807 2613 859Z" fill="#ED7D31" fill-rule="evenodd" fill-opacity="1"/></g><g clip-path="url(#clip43)"><path d="M3031 1360C3031 1342.33 3045.33 1328 3063 1328 3080.67 1328 3095 1342.33 3095 1360 3095 1377.67 3080.67 1392 3063 1392 3045.33 1392 3031 1377.67 3031 1360Z" fill="#ED7D31" fill-rule="evenodd" fill-opacity="1"/></g><g clip-path="url(#clip44)"><path d="M2943 1206C2943 1188.88 2956.88 1175 2974 1175 2991.12 1175 3005 1188.88 3005 1206 3005 1223.12 2991.12 1237 2974 1237 2956.88 1237 2943 1223.12 2943 1206Z" fill="#ED7D31" fill-rule="evenodd" fill-opacity="1"/></g><g clip-path="url(#clip45)"><path d="M3118 1426.5C3118 1408 3132.77 1393 3151 1393 3169.23 1393 3184 1408 3184 1426.5 3184 1445 3169.23 1460 3151 1460 3132.77 1460 3118 1445 3118 1426.5Z" fill="#ED7D31" fill-rule="evenodd" fill-opacity="1"/></g><g clip-path="url(#clip46)"><path d="M3004 1294C3004 1276.33 3018.33 1262 3036 1262 3053.67 1262 3068 1276.33 3068 1294 3068 1311.67 3053.67 1326 3036 1326 3018.33 1326 3004 1311.67 3004 1294Z" fill="#ED7D31" fill-rule="evenodd" fill-opacity="1"/></g><g clip-path="url(#clip47)"><path d="M3305 1442C3305 1422.12 3321.12 1406 3341 1406 3360.88 1406 3377 1422.12 3377 1442 3377 1461.88 3360.88 1478 3341 1478 3321.12 1478 3305 1461.88 3305 1442Z" fill="#ED7D31" fill-rule="evenodd" fill-opacity="1"/></g><g clip-path="url(#clip48)"><path d="M3424 1508.5C3424 1487.79 3440.79 1471 3461.5 1471 3482.21 1471 3499 1487.79 3499 1508.5 3499 1529.21 3482.21 1546 3461.5 1546 3440.79 1546 3424 1529.21 3424 1508.5Z" fill="#ED7D31" fill-rule="evenodd" fill-opacity="1"/></g><g clip-path="url(#clip49)"><path d="M2997 1165C2997 1147.33 3011.1 1133 3028.5 1133 3045.9 1133 3060 1147.33 3060 1165 3060 1182.67 3045.9 1197 3028.5 1197 3011.1 1197 2997 1182.67 2997 1165Z" fill="#ED7D31" fill-rule="evenodd" fill-opacity="1"/></g><g clip-path="url(#clip50)"><path d="M3010 1253C3010 1235.33 3024.1 1221 3041.5 1221 3058.9 1221 3073 1235.33 3073 1253 3073 1270.67 3058.9 1285 3041.5 1285 3024.1 1285 3010 1270.67 3010 1253Z" fill="#ED7D31" fill-rule="evenodd" fill-opacity="1"/></g><g clip-path="url(#clip51)"><path d="M2701 913C2701 898.088 2712.86 886 2727.5 886 2742.14 886 2754 898.088 2754 913 2754 927.912 2742.14 940 2727.5 940 2712.86 940 2701 927.912 2701 913Z" fill="#ED7D31" fill-rule="evenodd" fill-opacity="1"/></g><g clip-path="url(#clip52)"><path d="M2821 1054.5C2821 1038.76 2833.98 1026 2850 1026 2866.02 1026 2879 1038.76 2879 1054.5 2879 1070.24 2866.02 1083 2850 1083 2833.98 1083 2821 1070.24 2821 1054.5Z" fill="#ED7D31" fill-rule="evenodd" fill-opacity="1"/></g><g clip-path="url(#clip53)"><path d="M3066 1360.5C3066 1342.55 3080.55 1328 3098.5 1328 3116.45 1328 3131 1342.55 3131 1360.5 3131 1378.45 3116.45 1393 3098.5 1393 3080.55 1393 3066 1378.45 3066 1360.5Z" fill="#ED7D31" fill-rule="evenodd" fill-opacity="1"/></g><g clip-path="url(#clip54)"><path d="M2995 1240.5C2995 1223.1 3009.1 1209 3026.5 1209 3043.9 1209 3058 1223.1 3058 1240.5 3058 1257.9 3043.9 1272 3026.5 1272 3009.1 1272 2995 1257.9 2995 1240.5Z" fill="#ED7D31" fill-rule="evenodd" fill-opacity="1"/></g><g clip-path="url(#clip55)"><path d="M2985 1303.5C2985 1286.1 2998.88 1272 3016 1272 3033.12 1272 3047 1286.1 3047 1303.5 3047 1320.9 3033.12 1335 3016 1335 2998.88 1335 2985 1320.9 2985 1303.5Z" fill="#ED7D31" fill-rule="evenodd" fill-opacity="1"/></g><g clip-path="url(#clip56)"><path d="M2968 1146C2968 1128.88 2982.1 1115 2999.5 1115 3016.9 1115 3031 1128.88 3031 1146 3031 1163.12 3016.9 1177 2999.5 1177 2982.1 1177 2968 1163.12 2968 1146Z" fill="#ED7D31" fill-rule="evenodd" fill-opacity="1"/></g><g clip-path="url(#clip57)"><path d="M2909 1114.5C2909 1097.66 2922.43 1084 2939 1084 2955.57 1084 2969 1097.66 2969 1114.5 2969 1131.34 2955.57 1145 2939 1145 2922.43 1145 2909 1131.34 2909 1114.5Z" fill="#ED7D31" fill-rule="evenodd" fill-opacity="1"/></g><g clip-path="url(#clip58)"><path d="M2860 1240.5C2860 1224.21 2873.21 1211 2889.5 1211 2905.79 1211 2919 1224.21 2919 1240.5 2919 1256.79 2905.79 1270 2889.5 1270 2873.21 1270 2860 1256.79 2860 1240.5Z" fill="#A5A5A5" fill-rule="evenodd" fill-opacity="1"/></g><g clip-path="url(#clip59)"><path d="M2611 957C2611 943.193 2622.19 932 2636 932 2649.81 932 2661 943.193 2661 957 2661 970.807 2649.81 982 2636 982 2622.19 982 2611 970.807 2611 957Z" fill="#A5A5A5" fill-rule="evenodd" fill-opacity="1"/></g><g clip-path="url(#clip60)"><path d="M2611 957C2611 943.193 2622.19 932 2636 932 2649.81 932 2661 943.193 2661 957 2661 970.807 2649.81 982 2636 982 2622.19 982 2611 970.807 2611 957Z" fill="#A5A5A5" fill-rule="evenodd" fill-opacity="1"/></g><g clip-path="url(#clip61)"><path d="M2701 1004.5C2701 989.864 2712.86 978 2727.5 978 2742.14 978 2754 989.864 2754 1004.5 2754 1019.14 2742.14 1031 2727.5 1031 2712.86 1031 2701 1019.14 2701 1004.5Z" fill="#A5A5A5" fill-rule="evenodd" fill-opacity="1"/></g><g clip-path="url(#clip62)"><path d="M2613 859C2613 845.193 2624.19 834 2638 834 2651.81 834 2663 845.193 2663 859 2663 872.807 2651.81 884 2638 884 2624.19 884 2613 872.807 2613 859Z" fill="#A5A5A5" fill-rule="evenodd" fill-opacity="1"/></g><g clip-path="url(#clip63)"><path d="M2733 1067.5C2733 1052.31 2745.31 1040 2760.5 1040 2775.69 1040 2788 1052.31 2788 1067.5 2788 1082.69 2775.69 1095 2760.5 1095 2745.31 1095 2733 1082.69 2733 1067.5Z" fill="#A5A5A5" fill-rule="evenodd" fill-opacity="1"/></g><g clip-path="url(#clip64)"><path d="M2631 591.5C2631 577.417 2642.42 566 2656.5 566 2670.58 566 2682 577.417 2682 591.5 2682 605.583 2670.58 617 2656.5 617 2642.42 617 2631 605.583 2631 591.5Z" fill="#A5A5A5" fill-rule="evenodd" fill-opacity="1"/></g><g clip-path="url(#clip65)"><path d="M2789 976C2789 960.536 2801.54 948 2817 948 2832.46 948 2845 960.536 2845 976 2845 991.464 2832.46 1004 2817 1004 2801.54 1004 2789 991.464 2789 976Z" fill="#A5A5A5" fill-rule="evenodd" fill-opacity="1"/></g><g clip-path="url(#clip66)"><path d="M2599 891C2599 877.193 2609.97 866 2623.5 866 2637.03 866 2648 877.193 2648 891 2648 904.807 2637.03 916 2623.5 916 2609.97 916 2599 904.807 2599 891Z" fill="#A5A5A5" fill-rule="evenodd" fill-opacity="1"/></g><g clip-path="url(#clip67)"><path d="M2760 935C2760 919.536 2772.31 907 2787.5 907 2802.69 907 2815 919.536 2815 935 2815 950.464 2802.69 963 2787.5 963 2772.31 963 2760 950.464 2760 935Z" fill="#A5A5A5" fill-rule="evenodd" fill-opacity="1"/></g><g clip-path="url(#clip68)"><path d="M2758 862.5C2758 847.312 2770.54 835 2786 835 2801.46 835 2814 847.312 2814 862.5 2814 877.688 2801.46 890 2786 890 2770.54 890 2758 877.688 2758 862.5Z" fill="#A5A5A5" fill-rule="evenodd" fill-opacity="1"/></g><g clip-path="url(#clip69)"><path d="M2672 800C2672 785.641 2683.64 774 2698 774 2712.36 774 2724 785.641 2724 800 2724 814.359 2712.36 826 2698 826 2683.64 826 2672 814.359 2672 800Z" fill="#A5A5A5" fill-rule="evenodd" fill-opacity="1"/></g><g clip-path="url(#clip70)"><path d="M2672 989C2672 974.64 2683.64 963 2698 963 2712.36 963 2724 974.64 2724 989 2724 1003.36 2712.36 1015 2698 1015 2683.64 1015 2672 1003.36 2672 989Z" fill="#A5A5A5" fill-rule="evenodd" fill-opacity="1"/></g><g clip-path="url(#clip71)"><path d="M3339 1476.5C3339 1456.34 3355.34 1440 3375.5 1440 3395.66 1440 3412 1456.34 3412 1476.5 3412 1496.66 3395.66 1513 3375.5 1513 3355.34 1513 3339 1496.66 3339 1476.5Z" fill="#FFC000" fill-rule="evenodd" fill-opacity="1"/></g><g clip-path="url(#clip72)"><path d="M3235 1196.5C3235 1177.45 3250.67 1162 3270 1162 3289.33 1162 3305 1177.45 3305 1196.5 3305 1215.55 3289.33 1231 3270 1231 3250.67 1231 3235 1215.55 3235 1196.5Z" fill="#FFC000" fill-rule="evenodd" fill-opacity="1"/></g><g clip-path="url(#clip73)"><path d="M3134 1051.5C3134 1033 3149 1018 3167.5 1018 3186 1018 3201 1033 3201 1051.5 3201 1070 3186 1085 3167.5 1085 3149 1085 3134 1070 3134 1051.5Z" fill="#FFC000" fill-rule="evenodd" fill-opacity="1"/></g><g clip-path="url(#clip74)"><path d="M2818 1240.5C2818 1224.76 2830.98 1212 2847 1212 2863.02 1212 2876 1224.76 2876 1240.5 2876 1256.24 2863.02 1269 2847 1269 2830.98 1269 2818 1256.24 2818 1240.5Z" fill="#5B9BD5" fill-rule="evenodd" fill-opacity="1"/></g><g clip-path="url(#clip75)"><path d="M2767 1209C2767 1193.54 2779.31 1181 2794.5 1181 2809.69 1181 2822 1193.54 2822 1209 2822 1224.46 2809.69 1237 2794.5 1237 2779.31 1237 2767 1224.46 2767 1209Z" fill="#5B9BD5" fill-rule="evenodd" fill-opacity="1"/></g><g clip-path="url(#clip76)"><path d="M2603 1020C2603 1006.19 2614.19 995 2628 995 2641.81 995 2653 1006.19 2653 1020 2653 1033.81 2641.81 1045 2628 1045 2614.19 1045 2603 1033.81 2603 1020Z" fill="#5B9BD5" fill-rule="evenodd" fill-opacity="1"/></g><g clip-path="url(#clip77)"><path d="M2784 1240.5C2784 1224.76 2796.76 1212 2812.5 1212 2828.24 1212 2841 1224.76 2841 1240.5 2841 1256.24 2828.24 1269 2812.5 1269 2796.76 1269 2784 1256.24 2784 1240.5Z" fill="#5B9BD5" fill-rule="evenodd" fill-opacity="1"/></g><g clip-path="url(#clip78)"><path d="M2866 1272.5C2866 1256.21 2879.21 1243 2895.5 1243 2911.79 1243 2925 1256.21 2925 1272.5 2925 1288.79 2911.79 1302 2895.5 1302 2879.21 1302 2866 1288.79 2866 1272.5Z" fill="#5B9BD5" fill-rule="evenodd" fill-opacity="1"/></g><g clip-path="url(#clip79)"><path d="M2721 1146C2721 1131.09 2733.09 1119 2748 1119 2762.91 1119 2775 1131.09 2775 1146 2775 1160.91 2762.91 1173 2748 1173 2733.09 1173 2721 1160.91 2721 1146Z" fill="#5B9BD5" fill-rule="evenodd" fill-opacity="1"/></g><g clip-path="url(#clip80)"><path d="M2785 1366.5C2785 1350.76 2797.54 1338 2813 1338 2828.46 1338 2841 1350.76 2841 1366.5 2841 1382.24 2828.46 1395 2813 1395 2797.54 1395 2785 1382.24 2785 1366.5Z" fill="#5B9BD5" fill-rule="evenodd" fill-opacity="1"/></g><g clip-path="url(#clip81)"><path d="M2975 1366.5C2975 1349.1 2988.88 1335 3006 1335 3023.12 1335 3037 1349.1 3037 1366.5 3037 1383.9 3023.12 1398 3006 1398 2988.88 1398 2975 1383.9 2975 1366.5Z" fill="#5B9BD5" fill-rule="evenodd" fill-opacity="1"/></g><g clip-path="url(#clip82)"><path d="M2626 988.5C2626 974.417 2637.19 963 2651 963 2664.81 963 2676 974.417 2676 988.5 2676 1002.58 2664.81 1014 2651 1014 2637.19 1014 2626 1002.58 2626 988.5Z" fill="#5B9BD5" fill-rule="evenodd" fill-opacity="1"/></g><g clip-path="url(#clip83)"><path d="M2559 1020C2559 1006.74 2569.74 996 2583 996 2596.25 996 2607 1006.74 2607 1020 2607 1033.25 2596.25 1044 2583 1044 2569.74 1044 2559 1033.25 2559 1020Z" fill="#5B9BD5" fill-rule="evenodd" fill-opacity="1"/></g><g clip-path="url(#clip84)"><path d="M2746 1083.5C2746 1068.31 2758.31 1056 2773.5 1056 2788.69 1056 2801 1068.31 2801 1083.5 2801 1098.69 2788.69 1111 2773.5 1111 2758.31 1111 2746 1098.69 2746 1083.5Z" fill="#5B9BD5" fill-rule="evenodd" fill-opacity="1"/></g><g clip-path="url(#clip85)"><path d="M2937 1240.5C2937 1223.66 2950.66 1210 2967.5 1210 2984.34 1210 2998 1223.66 2998 1240.5 2998 1257.34 2984.34 1271 2967.5 1271 2950.66 1271 2937 1257.34 2937 1240.5Z" fill="#5B9BD5" fill-rule="evenodd" fill-opacity="1"/></g><g clip-path="url(#clip86)"><path d="M2740 1114.5C2740 1099.31 2752.31 1087 2767.5 1087 2782.69 1087 2795 1099.31 2795 1114.5 2795 1129.69 2782.69 1142 2767.5 1142 2752.31 1142 2740 1129.69 2740 1114.5Z" fill="#5B9BD5" fill-rule="evenodd" fill-opacity="1"/></g><g clip-path="url(#clip87)"><path d="M3019 1398C3019 1380.33 3033.1 1366 3050.5 1366 3067.9 1366 3082 1380.33 3082 1398 3082 1415.67 3067.9 1430 3050.5 1430 3033.1 1430 3019 1415.67 3019 1398Z" fill="#5B9BD5" fill-rule="evenodd" fill-opacity="1"/></g><g clip-path="url(#clip88)"><path d="M2780 1178C2780 1162.54 2792.54 1150 2808 1150 2823.46 1150 2836 1162.54 2836 1178 2836 1193.46 2823.46 1206 2808 1206 2792.54 1206 2780 1193.46 2780 1178Z" fill="#5B9BD5" fill-rule="evenodd" fill-opacity="1"/></g><g clip-path="url(#clip89)"><path d="M2886 1130.5C2886 1114.21 2899.21 1101 2915.5 1101 2931.79 1101 2945 1114.21 2945 1130.5 2945 1146.79 2931.79 1160 2915.5 1160 2899.21 1160 2886 1146.79 2886 1130.5Z" fill="#5B9BD5" fill-rule="evenodd" fill-opacity="1"/></g><g clip-path="url(#clip90)"><path d="M2870 1331.5C2870 1315.21 2883.21 1302 2899.5 1302 2915.79 1302 2929 1315.21 2929 1331.5 2929 1347.79 2915.79 1361 2899.5 1361 2883.21 1361 2870 1347.79 2870 1331.5Z" fill="#5B9BD5" fill-rule="evenodd" fill-opacity="1"/></g><g clip-path="url(#clip91)"><path d="M2673 796.5C2673 781.864 2684.64 770 2699 770 2713.36 770 2725 781.864 2725 796.5 2725 811.135 2713.36 823 2699 823 2684.64 823 2673 811.135 2673 796.5Z" fill="#5B9BD5" fill-rule="evenodd" fill-opacity="1"/></g><g clip-path="url(#clip92)"><path d="M2940 1058C2940 1040.88 2953.66 1027 2970.5 1027 2987.34 1027 3001 1040.88 3001 1058 3001 1075.12 2987.34 1089 2970.5 1089 2953.66 1089 2940 1075.12 2940 1058Z" fill="#5B9BD5" fill-rule="evenodd" fill-opacity="1"/></g><g clip-path="url(#clip93)"><path d="M2780 982C2780 966.536 2792.54 954 2808 954 2823.46 954 2836 966.536 2836 982 2836 997.464 2823.46 1010 2808 1010 2792.54 1010 2780 997.464 2780 982Z" fill="#5B9BD5" fill-rule="evenodd" fill-opacity="1"/></g><g clip-path="url(#clip94)"><path d="M2597 765C2597 751.193 2607.97 740 2621.5 740 2635.03 740 2646 751.193 2646 765 2646 778.807 2635.03 790 2621.5 790 2607.97 790 2597 778.807 2597 765Z" fill="#5B9BD5" fill-rule="evenodd" fill-opacity="1"/></g><g clip-path="url(#clip95)"><path d="M2703 809C2703 794.088 2714.86 782 2729.5 782 2744.14 782 2756 794.088 2756 809 2756 823.912 2744.14 836 2729.5 836 2714.86 836 2703 823.912 2703 809Z" fill="#5B9BD5" fill-rule="evenodd" fill-opacity="1"/></g><g clip-path="url(#clip96)"><path d="M2810 976C2810 959.984 2822.76 947 2838.5 947 2854.24 947 2867 959.984 2867 976 2867 992.016 2854.24 1005 2838.5 1005 2822.76 1005 2810 992.016 2810 976Z" fill="#5B9BD5" fill-rule="evenodd" fill-opacity="1"/></g><g clip-path="url(#clip97)"><path d="M3008 1196.5C3008 1179.1 3022.1 1165 3039.5 1165 3056.9 1165 3071 1179.1 3071 1196.5 3071 1213.9 3056.9 1228 3039.5 1228 3022.1 1228 3008 1213.9 3008 1196.5Z" fill="#5B9BD5" fill-rule="evenodd" fill-opacity="1"/></g><g clip-path="url(#clip98)"><path d="M2773 925.5C2773 910.312 2785.31 898 2800.5 898 2815.69 898 2828 910.312 2828 925.5 2828 940.688 2815.69 953 2800.5 953 2785.31 953 2773 940.688 2773 925.5Z" fill="#5B9BD5" fill-rule="evenodd" fill-opacity="1"/></g><g clip-path="url(#clip99)"><path d="M2924 988.5C2924 971.655 2937.43 958 2954 958 2970.57 958 2984 971.655 2984 988.5 2984 1005.34 2970.57 1019 2954 1019 2937.43 1019 2924 1005.34 2924 988.5Z" fill="#5B9BD5" fill-rule="evenodd" fill-opacity="1"/></g><g clip-path="url(#clip100)"><text fill="#595959" fill-opacity="1" font-family="Calibri,Calibri_MSFontService,sans-serif" font-style="normal" font-variant="normal" font-weight="400" font-stretch="normal" font-size="41" text-anchor="start" direction="ltr" writing-mode="lr-tb" unicode-bidi="normal" text-decoration="none" transform="matrix(1 0 0 1 1921.63 2007)">0</text></g><g clip-path="url(#clip101)"><text fill="#595959" fill-opacity="1" font-family="Calibri,Calibri_MSFontService,sans-serif" font-style="normal" font-variant="normal" font-weight="400" font-stretch="normal" font-size="41" text-anchor="start" direction="ltr" writing-mode="lr-tb" unicode-bidi="normal" text-decoration="none" transform="matrix(1 0 0 1 1921.63 1849)">5</text></g><g clip-path="url(#clip102)"><text fill="#595959" fill-opacity="1" font-family="Calibri,Calibri_MSFontService,sans-serif" font-style="normal" font-variant="normal" font-weight="400" font-stretch="normal" font-size="41" text-anchor="start" direction="ltr" writing-mode="lr-tb" unicode-bidi="normal" text-decoration="none" transform="matrix(1 0 0 1 1900.73 1692)">10</text></g><g clip-path="url(#clip103)"><text fill="#595959" fill-opacity="1" font-family="Calibri,Calibri_MSFontService,sans-serif" font-style="normal" font-variant="normal" font-weight="400" font-stretch="normal" font-size="41" text-anchor="start" direction="ltr" writing-mode="lr-tb" unicode-bidi="normal" text-decoration="none" transform="matrix(1 0 0 1 1900.73 1534)">15</text></g><g clip-path="url(#clip104)"><text fill="#595959" fill-opacity="1" font-family="Calibri,Calibri_MSFontService,sans-serif" font-style="normal" font-variant="normal" font-weight="400" font-stretch="normal" font-size="41" text-anchor="start" direction="ltr" writing-mode="lr-tb" unicode-bidi="normal" text-decoration="none" transform="matrix(1 0 0 1 1900.73 1377)">20</text></g><g clip-path="url(#clip105)"><text fill="#595959" fill-opacity="1" font-family="Calibri,Calibri_MSFontService,sans-serif" font-style="normal" font-variant="normal" font-weight="400" font-stretch="normal" font-size="41" text-anchor="start" direction="ltr" writing-mode="lr-tb" unicode-bidi="normal" text-decoration="none" transform="matrix(1 0 0 1 1900.73 1219)">25</text></g><g clip-path="url(#clip106)"><text fill="#595959" fill-opacity="1" font-family="Calibri,Calibri_MSFontService,sans-serif" font-style="normal" font-variant="normal" font-weight="400" font-stretch="normal" font-size="41" text-anchor="start" direction="ltr" writing-mode="lr-tb" unicode-bidi="normal" text-decoration="none" transform="matrix(1 0 0 1 1900.73 1062)">30</text></g><g clip-path="url(#clip107)"><text fill="#595959" fill-opacity="1" font-family="Calibri,Calibri_MSFontService,sans-serif" font-style="normal" font-variant="normal" font-weight="400" font-stretch="normal" font-size="41" text-anchor="start" direction="ltr" writing-mode="lr-tb" unicode-bidi="normal" text-decoration="none" transform="matrix(1 0 0 1 1900.73 904)">35</text></g><g clip-path="url(#clip108)"><text fill="#595959" fill-opacity="1" font-family="Calibri,Calibri_MSFontService,sans-serif" font-style="normal" font-variant="normal" font-weight="400" font-stretch="normal" font-size="41" text-anchor="start" direction="ltr" writing-mode="lr-tb" unicode-bidi="normal" text-decoration="none" transform="matrix(1 0 0 1 1900.73 747)">40</text></g><g clip-path="url(#clip109)"><text fill="#595959" fill-opacity="1" font-family="Calibri,Calibri_MSFontService,sans-serif" font-style="normal" font-variant="normal" font-weight="400" font-stretch="normal" font-size="41" text-anchor="start" direction="ltr" writing-mode="lr-tb" unicode-bidi="normal" text-decoration="none" transform="matrix(1 0 0 1 1900.73 589)">45</text></g><g clip-path="url(#clip110)"><text fill="#595959" fill-opacity="1" font-family="Calibri,Calibri_MSFontService,sans-serif" font-style="normal" font-variant="normal" font-weight="400" font-stretch="normal" font-size="41" text-anchor="start" direction="ltr" writing-mode="lr-tb" unicode-bidi="normal" text-decoration="none" transform="matrix(1 0 0 1 1900.73 432)">50</text></g><g clip-path="url(#clip111)"><text fill="#595959" fill-opacity="1" font-family="Calibri,Calibri_MSFontService,sans-serif" font-style="normal" font-variant="normal" font-weight="400" font-stretch="normal" font-size="41" text-anchor="start" direction="ltr" writing-mode="lr-tb" unicode-bidi="normal" text-decoration="none" transform="matrix(1 0 0 1 1970.35 2062)">0</text></g><g clip-path="url(#clip112)"><text fill="#595959" fill-opacity="1" font-family="Calibri,Calibri_MSFontService,sans-serif" font-style="normal" font-variant="normal" font-weight="400" font-stretch="normal" font-size="41" text-anchor="start" direction="ltr" writing-mode="lr-tb" unicode-bidi="normal" text-decoration="none" transform="matrix(1 0 0 1 2304.13 2062)">1000</text></g><g clip-path="url(#clip113)"><text fill="#595959" fill-opacity="1" font-family="Calibri,Calibri_MSFontService,sans-serif" font-style="normal" font-variant="normal" font-weight="400" font-stretch="normal" font-size="41" text-anchor="start" direction="ltr" writing-mode="lr-tb" unicode-bidi="normal" text-decoration="none" transform="matrix(1 0 0 1 2669.27 2062)">2000</text></g><g clip-path="url(#clip114)"><text fill="#595959" fill-opacity="1" font-family="Calibri,Calibri_MSFontService,sans-serif" font-style="normal" font-variant="normal" font-weight="400" font-stretch="normal" font-size="41" text-anchor="start" direction="ltr" writing-mode="lr-tb" unicode-bidi="normal" text-decoration="none" transform="matrix(1 0 0 1 3034.4 2062)">3000</text></g><g clip-path="url(#clip115)"><text fill="#595959" fill-opacity="1" font-family="Calibri,Calibri_MSFontService,sans-serif" font-style="normal" font-variant="normal" font-weight="400" font-stretch="normal" font-size="41" text-anchor="start" direction="ltr" writing-mode="lr-tb" unicode-bidi="normal" text-decoration="none" transform="matrix(1 0 0 1 3399.54 2062)">4000</text></g><g clip-path="url(#clip116)"><text fill="#595959" fill-opacity="1" font-family="Calibri,Calibri_MSFontService,sans-serif" font-style="normal" font-variant="normal" font-weight="400" font-stretch="normal" font-size="41" text-anchor="start" direction="ltr" writing-mode="lr-tb" unicode-bidi="normal" text-decoration="none" transform="matrix(1 0 0 1 3764.67 2062)">5000</text></g><g clip-path="url(#clip117)"><text fill="#595959" fill-opacity="1" font-family="Calibri,Calibri_MSFontService,sans-serif" font-style="normal" font-variant="normal" font-weight="400" font-stretch="normal" font-size="41" text-anchor="start" direction="ltr" writing-mode="lr-tb" unicode-bidi="normal" text-decoration="none" transform="matrix(1 0 0 1 4129.81 2062)">6000</text></g><g clip-path="url(#clip118)"><text fill="#595959" fill-opacity="1" font-family="Calibri,Calibri_MSFontService,sans-serif" font-style="normal" font-variant="normal" font-weight="400" font-stretch="normal" font-size="46" text-anchor="start" direction="ltr" writing-mode="lr-tb" unicode-bidi="normal" text-decoration="none" transform="matrix(6.12323e-17 -1 1 6.12323e-17 1875.04 1255)">MPG</text></g><g clip-path="url(#clip119)"><text fill="#595959" fill-opacity="1" font-family="Calibri,Calibri_MSFontService,sans-serif" font-style="normal" font-variant="normal" font-weight="400" font-stretch="normal" font-size="46" text-anchor="start" direction="ltr" writing-mode="lr-tb" unicode-bidi="normal" text-decoration="none" transform="matrix(1 0 0 1 3013.83 2131)">Weight</text></g><g clip-path="url(#clip120)"><path d="M4285 1131C4285 1124.92 4290.15 1120 4296.5 1120 4302.85 1120 4308 1124.92 4308 1131 4308 1137.07 4302.85 1142 4296.5 1142 4290.15 1142 4285 1137.07 4285 1131Z" fill="#4472C4" fill-rule="evenodd" fill-opacity="1"/></g><g clip-path="url(#clip121)"><text fill="#595959" fill-opacity="1" font-family="Calibri,Calibri_MSFontService,sans-serif" font-style="normal" font-variant="normal" font-weight="400" font-stretch="normal" font-size="41" text-anchor="start" direction="ltr" writing-mode="lr-tb" unicode-bidi="normal" text-decoration="none" transform="matrix(1 0 0 1 4317.73 1141)">bmw</text></g><g clip-path="url(#clip122)"><path d="M4285 1208.5C4285 1202.15 4290.15 1197 4296.5 1197 4302.85 1197 4308 1202.15 4308 1208.5 4308 1214.85 4302.85 1220 4296.5 1220 4290.15 1220 4285 1214.85 4285 1208.5Z" fill="#ED7D31" fill-rule="evenodd" fill-opacity="1"/></g><g clip-path="url(#clip123)"><text fill="#595959" fill-opacity="1" font-family="Calibri,Calibri_MSFontService,sans-serif" font-style="normal" font-variant="normal" font-weight="400" font-stretch="normal" font-size="41" text-anchor="start" direction="ltr" writing-mode="lr-tb" unicode-bidi="normal" text-decoration="none" transform="matrix(1 0 0 1 4317.73 1218)">ford</text></g><g clip-path="url(#clip124)"><path d="M4285 1285.5C4285 1279.15 4290.15 1274 4296.5 1274 4302.85 1274 4308 1279.15 4308 1285.5 4308 1291.85 4302.85 1297 4296.5 1297 4290.15 1297 4285 1291.85 4285 1285.5Z" fill="#A5A5A5" fill-rule="evenodd" fill-opacity="1"/></g><g clip-path="url(#clip125)"><text fill="#595959" fill-opacity="1" font-family="Calibri,Calibri_MSFontService,sans-serif" font-style="normal" font-variant="normal" font-weight="400" font-stretch="normal" font-size="41" text-anchor="start" direction="ltr" writing-mode="lr-tb" unicode-bidi="normal" text-decoration="none" transform="matrix(1 0 0 1 4317.73 1296)">honda</text></g><g clip-path="url(#clip126)"><path d="M4285 1363C4285 1356.92 4290.15 1352 4296.5 1352 4302.85 1352 4308 1356.92 4308 1363 4308 1369.08 4302.85 1374 4296.5 1374 4290.15 1374 4285 1369.08 4285 1363Z" fill="#FFC000" fill-rule="evenodd" fill-opacity="1"/></g><g clip-path="url(#clip127)"><text fill="#595959" fill-opacity="1" font-family="Calibri,Calibri_MSFontService,sans-serif" font-style="normal" font-variant="normal" font-weight="400" font-stretch="normal" font-size="41" text-anchor="start" direction="ltr" writing-mode="lr-tb" unicode-bidi="normal" text-decoration="none" transform="matrix(1 0 0 1 4317.73 1373)">mercedes</text></g><g clip-path="url(#clip128)"><path d="M4285 1440.5C4285 1434.15 4290.15 1429 4296.5 1429 4302.85 1429 4308 1434.15 4308 1440.5 4308 1446.85 4302.85 1452 4296.5 1452 4290.15 1452 4285 1446.85 4285 1440.5Z" fill="#5B9BD5" fill-rule="evenodd" fill-opacity="1"/></g><g clip-path="url(#clip129)"><text fill="#595959" fill-opacity="1" font-family="Calibri,Calibri_MSFontService,sans-serif" font-style="normal" font-variant="normal" font-weight="400" font-stretch="normal" font-size="41" text-anchor="start" direction="ltr" writing-mode="lr-tb" unicode-bidi="normal" text-decoration="none" transform="matrix(1 0 0 1 4317.73 1450)">toyota</text></g><rect x="1774.5" y="371.5" width="2754" height="1829" stroke="#D9D9D9" stroke-width="3.4375" stroke-linecap="butt" stroke-linejoin="round" stroke-miterlimit="10" stroke-opacity="1" fill="none"/></g></svg>